<?xml version="1.0"?>
<svg width="1150" height="400" xmlns="http://www.w3.org/2000/svg" xmlns:svg="http://www.w3.org/2000/svg" version="1.1">
 <!-- Generator: Adobe Illustrator 29.0.0, SVG Export Plug-In . SVG Version: 2.1.0 Build 186)  -->
 <defs>
  <style>.st0 {
        fill: #a9d18e;
      }

      .st1 {
        fill: #9dc3e6;
      }

      .st2 {
        fill: #fff;
      }</style>
 </defs>
 <g class="layer">
  <title>Layer 1</title>
  <path class="st1" d="m409.7,131.3l-35.2,0l0,-15.9l91.5,0l0,15.9l-36.4,0l0,86.3l-19.8,0l0,-86.3l-0.1,0z" id="svg_1"/>
  <path class="st0" d="m820.8,131.3l-35.2,0l0,-15.9l91.5,0l0,15.9l-36.4,0l0,86.3l-19.8,0l0,-86.3l-0.1,0z" id="svg_2"/>
  <path class="st1" d="m473.5,217.5c-11.1,0 -19.5,-2.8 -25.1,-8.5c-5.7,-5.6 -8.5,-14 -8.5,-25s2.9,-19.3 8.6,-25c5.7,-5.7 14.1,-8.5 25.1,-8.5l25.8,0l0,14l-23.4,0c-6.4,0 -10.7,0.9 -12.9,2.7c-2.2,1.8 -3.4,5.1 -3.6,9.9l39.9,0l0,14l-39.9,0c0.2,4.8 1.3,8.1 3.3,9.8c2,1.8 6.4,2.6 13,2.6l23.5,0l0,14l-25.8,0z" id="svg_3"/>
  <path class="st1" d="m547,203.2l18.8,0l0,14.3l-24,0c-6.1,0 -11.1,-0.6 -15,-1.9c-3.9,-1.3 -7.3,-3.3 -10.2,-6.1c-3.1,-3.1 -5.5,-6.8 -7.3,-11.2c-1.8,-4.4 -2.6,-9.1 -2.6,-14s0.9,-10 2.6,-14.5c1.7,-4.5 4.2,-8.2 7.3,-11.3c2.9,-2.8 6.4,-4.8 10.3,-6.1c3.9,-1.3 8.9,-1.9 14.8,-1.9l24,0l0,14.4l-18.8,0c-8.3,0 -14,1.4 -17.2,4.3c-3.1,2.9 -4.7,7.9 -4.7,15s0.6,7.5 1.9,10.2c1.3,2.7 3.3,4.9 6,6.5c1.3,0.8 2.9,1.3 4.6,1.7c1.8,0.3 4.9,0.5 9.4,0.5l0.1,0.1z" id="svg_4"/>
  <path class="st1" d="m577.4,126.4l17.5,0l0,24.2l15.7,0c9.8,0 17,1.9 21.4,5.8c4.4,3.9 6.6,10.1 6.6,18.7l0,42.4l-17.8,0l0,-40.4c0,-4.6 -0.8,-7.7 -2.5,-9.4c-1.7,-1.7 -4.8,-2.5 -9.3,-2.5l-14.1,0l0,52.2l-17.5,0l0,-91.1l0,0.1z" id="svg_5"/>
  <path class="st1" d="m653.9,150.6l33.2,0c10,0 17.2,1.9 21.5,5.7c4.3,3.8 6.5,10.1 6.5,18.8l0,42.4l-17.7,0l0,-40.2c0,-5 -0.8,-8.2 -2.3,-9.7c-1.5,-1.5 -4.7,-2.2 -9.3,-2.2l-14.2,0l0,52.2l-17.7,0l0,-66.9l0,-0.1z" id="svg_6"/>
  <path class="st1" d="m759.9,217.5c-11.1,0 -19.5,-2.8 -25.1,-8.5c-5.7,-5.6 -8.5,-14 -8.5,-25s2.9,-19.3 8.6,-25c5.7,-5.7 14.1,-8.5 25.1,-8.5l25.8,0l0,14l-23.4,0c-6.4,0 -10.7,0.9 -12.9,2.7c-2.2,1.8 -3.4,5.1 -3.6,9.9l39.9,0l0,14l-39.9,0c0.2,4.8 1.3,8.1 3.3,9.8c2,1.8 6.4,2.6 13,2.6l23.5,0l0,14l-25.8,0z" id="svg_7"/>
  <path class="st0" d="m887,217.5c-11.1,0 -19.5,-2.8 -25.1,-8.5c-5.7,-5.6 -8.5,-14 -8.5,-25s2.9,-19.3 8.6,-25c5.7,-5.7 14.1,-8.5 25.1,-8.5l25.8,0l0,14l-23.4,0c-6.4,0 -10.7,0.9 -12.9,2.7c-2.2,1.8 -3.4,5.1 -3.6,9.9l39.9,0l0,14l-39.9,0c0.2,4.8 1.3,8.1 3.3,9.8c2,1.8 6.4,2.6 13,2.6l23.5,0l0,14l-25.8,0z" id="svg_8"/>
  <path class="st0" d="m924,150.6l29.7,0c6.9,0 11.8,1.2 14.6,3.8c2.8,2.5 4.2,6.9 4.2,13.1l0,11.2l-16.9,0l0,-8.6c0,-2.6 -0.5,-4.3 -1.4,-5.2s-3,-1.3 -6.4,-1.3l-6.2,0l0,54.1l-17.7,0l0,-66.9l0.1,-0.2z" id="svg_9"/>
  <path class="st0" d="m980.6,150.6l29.7,0c6.9,0 11.8,1.2 14.6,3.8c2.8,2.5 4.2,6.9 4.2,13.1l0,11.2l-16.9,0l0,-8.6c0,-2.6 -0.5,-4.3 -1.4,-5.2c-0.9,-0.9 -3,-1.3 -6.4,-1.3l-6.2,0l0,54.1l-17.7,0l0,-66.9l0.1,-0.2z" id="svg_10"/>
  <path class="st0" d="m1038,150.6l36.2,0c9.1,0 16,2.1 20.6,6.3c4.6,4.2 6.9,10.4 6.9,18.7l0,41.9l-47.5,0c-6.7,0 -11.8,-1.7 -15.3,-5c-3.6,-3.3 -5.4,-8.1 -5.4,-14.3s2.1,-13.1 6.2,-16.4c4.1,-3.3 10.9,-5 20.5,-5l23.3,0l0,-1.7c0,-4 -1.2,-6.8 -3.5,-8.4c-2.3,-1.6 -6.5,-2.4 -12.5,-2.4l-29.5,0l0,-13.8l0,0.1zm23.5,53.5l22.1,0l0,-13.8l-20.8,0c-4.1,0 -7,0.6 -8.6,1.7c-1.6,1.1 -2.4,3.1 -2.4,5.8s0.6,4 1.9,4.9c1.3,0.9 3.8,1.4 7.7,1.4l0.1,0z" id="svg_11"/>
  <g id="svg_12">
   <path class="st1" d="m417.5,252.2l0,6.5l-19.3,0l0,10.3l18.3,0l0,6.8l-18.4,0l0,10.7l19.7,0l0,6.6l-27.2,0l0,-40.8l26.8,0l0.1,-0.1z" id="svg_13"/>
   <path class="st1" d="m481.2,252.2l-17.9,40.8l-8.1,0l-17.1,-40.8l9,0l12.6,31.2l12.6,-31.2l8.9,0z" id="svg_14"/>
   <path class="st1" d="m500.4,272.7c0,-13.8 6.8,-20.7 20.5,-20.7s20.1,6.9 20.1,20.7s-6.7,20.6 -20.1,20.6s-19.9,-6.9 -20.5,-20.6zm20.5,14c8.2,0 12.3,-4.7 12.3,-14.2s-4.1,-14 -12.3,-14s-12.6,4.7 -12.6,14s4.2,14.2 12.6,14.2z" id="svg_15"/>
   <path class="st1" d="m572,252.2l0,34.2l19,0l0,6.6l-26.6,0l0,-40.8l7.6,0z" id="svg_16"/>
   <path class="st1" d="m644.8,252.2l-17.9,40.8l-8.1,0l-17.1,-40.8l9,0l12.6,31.2l12.6,-31.2l8.9,0z" id="svg_17"/>
   <path class="st1" d="m673,252.2l0,40.8l-7.6,0l0,-40.8l7.6,0z" id="svg_18"/>
   <path class="st1" d="m697.9,293l0,-40.8l7.6,0l22.7,29.1l0,-29.1l7.3,0l0,40.8l-7.6,0l-22.7,-29.8l0,29.8l-7.3,0z" id="svg_19"/>
   <path class="st1" d="m792.7,291.1c-3.3,1.4 -7.4,2.2 -12.3,2.2c-14.4,0 -21.6,-7.1 -21.6,-21.2s7.3,-20.1 21.9,-20.1s8.5,0.7 12,2l0,6.8c-3.5,-1.5 -7.3,-2.3 -11.4,-2.3c-9.8,0 -14.7,4.5 -14.7,13.5s4.6,14.7 13.8,14.7s2.9,-0.2 4.7,-0.7l0,-11.9l7.6,0l0,16.9l0,0.1z" id="svg_20"/>
   <path class="st1" d="m869.1,252.2l0,6.6l-11.7,0l0,34.2l-7.5,0l0,-34.2l-11.7,0l0,-6.6l30.9,0z" id="svg_21"/>
   <path class="st1" d="m888.3,272.7c0,-13.8 6.8,-20.7 20.5,-20.7s20.1,6.9 20.1,20.7s-6.7,20.6 -20.1,20.6s-19.9,-6.9 -20.5,-20.6zm20.5,14c8.2,0 12.3,-4.7 12.3,-14.2s-4.1,-14 -12.3,-14s-12.6,4.7 -12.6,14s4.2,14.2 12.6,14.2z" id="svg_22"/>
   <path class="st1" d="m952.4,293l0,-40.8l17.7,0c12.7,0 19.1,6.4 19.1,19.3s-6.4,21.5 -19.1,21.5l-17.7,0zm16.5,-6.6c8.5,0 12.7,-5 12.7,-14.9s-4.2,-12.7 -12.7,-12.7l-9,0l0,27.6l9,0z" id="svg_23"/>
   <path class="st1" d="m1009.1,293l17.3,-40.8l8.1,0l17.7,40.8l-8.1,0l-5.1,-11.1l-13.1,0l2.6,-6.6l8.5,0l-6.7,-15.3l-13.4,33l-7.8,0z" id="svg_24"/>
   <path class="st1" d="m1064.9,252.2l8.1,0l11.5,19.6l10.8,-19.6l7.8,0l-15,26.5l0,14.2l-7.6,0l0,-14.2l-15.6,-26.5z" id="svg_25"/>
  </g>
  <g id="svg_26">
   <path class="st1" d="m191.3,349.9l0,0s-0.1,0 -0.1,0c-1.3,0 -2.5,0.6 -3.4,1.5c-0.9,0.9 -1.5,2.1 -1.6,3.4l0,0.2c0,2.7 2.2,5 4.9,5.1l0.1,0c2.6,0 4.8,-2.2 5,-4.8l0,0s0,-0.2 0,-0.2c0,-2.7 -2.2,-5 -4.9,-5.1l0,-0.1z" id="svg_27"/>
   <path class="st1" d="m223,260.7l0,0s0,0 0,0c0,0 0,0 0,0l0,0c-3.7,0 -6.5,3 -6.5,6.8l0,0s0,0 0,0l0,0s0,0 0,0c0,3.4 2.7,6.3 6,6.4l0,0c3.6,0 6.6,-3.2 6.6,-7l0,0l0,0c0,-3.6 -2.6,-6.3 -6,-6.3l-0.1,0.1z" id="svg_28"/>
   <path class="st1" d="m216.4,127.2l0,0s0,0 0,0l0,0s0,0 0,0c0,3.8 2.8,6.8 6.5,6.8l0.1,0c3.4,0 6,-2.6 6,-6.1l0,0c0,-3.9 -2.9,-7.1 -6.6,-7.1l0,0.8s0,-0.8 0,-0.8c-3.3,0 -6,2.9 -6.1,6.3l0.1,0.1z" id="svg_29"/>
   <path class="st1" d="m238.3,45.3l0,0s0,0 0,0c1.9,0 3.3,-1.4 3.6,-3.1c0,-0.4 -0.2,-0.8 -0.6,-0.9c-2.7,-0.8 -5.4,-1.5 -8.1,-2.1l-0.7,0.2l-0.2,0.7c0.3,1.3 1.1,2.6 2.2,3.6c1,1 2.3,1.7 3.7,1.7l0.1,-0.1z" id="svg_30"/>
   <path class="st1" d="m218.4,323.5l-0.2,0c-3.2,0.2 -5.9,3 -5.9,6.2l0,0.3s0,0 0,0c0,0 0,0 0,0l0,0s0,0 0,0c0.2,2.8 2.3,4.9 5,4.9l0.1,0s0,-0.8 0,-0.8l0,0.8c1.6,0 3.1,-0.9 4.1,-2c1.1,-1.2 1.8,-2.7 1.8,-4.2l0,-0.7c-0.4,-2.6 -2.5,-4.4 -5,-4.4l0.1,-0.1z" id="svg_31"/>
   <path class="st1" d="m226.6,299.2l0,0c0,-3.3 -2.6,-5.8 -5.6,-5.8c-0.7,0 -1.4,0.1 -2.1,0.4c-2.4,1 -4.1,3.6 -4.2,6.1l0,0s0,0.2 0,0.2c0,3.3 2.7,5.9 5.7,5.9c0.5,0 1,0 1.5,-0.2c2.8,-0.9 4.8,-3.6 4.8,-6.6l-0.8,0s0.8,0 0.8,0l0,0l-0.1,0z" id="svg_32"/>
   <path class="st1" d="m217.4,60c-2.1,0 -3.9,1.2 -4.7,3.3c-0.3,0.6 -0.4,1.3 -0.4,2c0,3.1 2.5,6 5.8,6.2l0.3,0c2.2,0 4.1,-1.3 4.7,-3.4c0.2,-0.5 0.3,-1.1 0.3,-1.6c0,-3 -2.3,-5.9 -5.3,-6.3l-0.7,0l0,-0.2z" id="svg_33"/>
   <path class="st1" d="m224.6,190.4l-0.2,0c-3.6,0 -6.5,3 -6.6,6.8l0,0.2c0,3.7 2.8,6.9 6.4,7l0.2,0c3.6,0 6.5,-3 6.6,-6.8l0,-0.2c0,-3.8 -2.8,-6.9 -6.4,-7z" id="svg_34"/>
   <path class="st1" d="m153.4,128l0,0c0,0 0,0 0,0c0,1.7 0.6,3.2 1.7,4.3c1.1,1.1 2.6,1.8 4.3,1.8l0,0c3.7,0 6.5,-3 6.5,-6.8l0,0s0,0 0,0l0,0c0,-3.4 -2.7,-6.3 -6,-6.3c-3.6,0 -6.6,3.2 -6.6,7l0,0c0,0 0,0 0,0c0,0 0,0 0,0l0.1,0z" id="svg_35"/>
   <path class="st1" d="m164.6,197.4c0,-3.8 -2.9,-7 -6.6,-7c-3.7,0 -6.6,3.2 -6.6,7c0,3.8 2.9,7 6.6,7c3.7,0 6.6,-3.2 6.6,-7z" id="svg_36"/>
   <path class="st1" d="m167.3,45.1l0.2,0c1.4,0 2.7,-0.9 3.7,-1.9c1,-1 1.7,-2.4 1.7,-3.8l0,0c0,0 0,0 0,0c0,-1.7 -0.9,-3.1 -2.2,-3.9l-0.5,0c-1.5,0 -3,0.2 -4.5,0.4l-0.4,0c-1.2,1 -2,2.3 -2.3,3.8l0,0.9c0,2.4 1.9,4.4 4.3,4.5z" id="svg_37"/>
   <path class="st1" d="m159.8,273.1l0,0.8s0,0 0,0c3.3,0 6,-2.9 6,-6.3l0,0c0,0 0,-0.1 0,-0.1c0,-3.8 -2.9,-6.8 -6.6,-6.7c-1.7,0 -3.2,0.7 -4.3,1.8c-1.1,1.1 -1.7,2.7 -1.7,4.5l0,0s0,0 0,0c0,3.7 2.9,6.8 6.5,6.9l0,-0.8l0.1,-0.1z" id="svg_38"/>
   <path class="st1" d="m197.2,95.1l0,0l0,-0.2c-0.1,-3.3 -2.9,-6.1 -6.1,-6.2l-0.2,0s0,0 0,0c0,0 0,0 0,0l0,0c-3.1,0.2 -5.8,3.1 -5.8,6.3l0,0c0,0.1 0,0.1 0,0.1c0,0 0,0 0,0l0,0s0,0 0,0c0.1,3.4 2.8,6.2 6.1,6.2l0,0s0,-0.8 0,-0.8l0,0.8c3.2,-0.1 5.9,-3 6,-6.3l0,0.1z" id="svg_39"/>
   <path class="st1" d="m303.3,125.6c-0.1,0.5 -0.1,1 -0.2,1.5l0,0c0.2,3 1.4,5.7 4,7.3c0.8,0.5 1.6,0.8 2.4,0.8c1.1,0 2.2,-0.6 3,-1.6c0.8,-1 1.3,-2.1 1.3,-3.4c0,-2.9 -1.1,-5.5 -3.5,-7.3c-0.9,-0.7 -2,-1.1 -3,-1.1c-2,0 -3.6,1.5 -4.1,3.8l0.1,0z" id="svg_40"/>
   <path class="st1" d="m311.1,260.2c-0.5,-0.3 -1.1,-0.4 -1.6,-0.4c-0.5,0 -0.9,0 -1.3,0.3c-3,1.3 -5,4.5 -5,7.7c0,0.5 0,1.1 0.2,1.6c0.5,2.2 2.1,3.7 4.1,3.7c1,0 1.9,-0.3 2.9,-1l-0.5,-0.6l0.5,0.6c2.4,-1.7 3.4,-4.3 3.6,-6.9l0,0c-0.1,-2.1 -0.9,-4 -2.8,-5l-0.1,0z" id="svg_41"/>
   <path class="st1" d="m304.4,292.9c-0.6,-0.4 -1.4,-0.6 -2,-0.6c-0.9,0 -1.8,0.3 -2.6,0.8c-2.6,1.7 -4.1,4.3 -4.1,7.4l0,0s0,0 0,0l0,0s0,0 0,0c0,0 0,0.1 0,0.2l0,0c0,0 0,0 0,0c0,1.1 0.4,2 1,2.7c0.7,0.7 1.6,1.1 2.6,1.1c0.6,0 1.3,-0.2 2,-0.5l-0.3,-0.7l0.3,0.7c3,-1.4 4.4,-4.1 4.8,-6.8l0,0c0,-1 0,-1.8 -0.3,-2.6c-0.2,-0.8 -0.7,-1.5 -1.5,-1.9l0.1,0.2z" id="svg_42"/>
   <path class="st1" d="m308.7,157.7c-0.8,1.2 -1.1,2.6 -1.1,4c0,2.8 1.3,5.6 3.8,7l0,0c0.7,0.4 1.4,0.6 2.1,0.6c1,0 1.9,-0.4 2.7,-1c1.6,-1.3 2.3,-3.1 2.3,-5.6l0,0c-0.1,-2 -0.9,-4.6 -3.4,-6.3c-0.8,-0.5 -1.7,-0.8 -2.6,-0.8c-1.5,0 -2.9,0.8 -3.8,2.1z" id="svg_43"/>
   <path class="st1" d="m283.1,168.1c1,0.7 2.1,1.1 3.2,1.1c1.7,0 3.2,-0.9 4.2,-2.5c0.8,-1.2 1.1,-2.6 1.2,-4l0,0c-0.2,-2.7 -1.2,-5.2 -3.8,-6.6c-0.9,-0.5 -1.8,-0.7 -2.7,-0.7c-1.9,0 -3.7,1.1 -4.6,3c-0.6,1.1 -0.8,2.3 -0.8,3.5c0,2.4 1.2,4.8 3.3,6.3l0,-0.1z" id="svg_44"/>
   <path class="st1" d="m276.9,124.5c-0.4,0.8 -0.5,1.7 -0.5,2.6c0,3 1.8,5.9 4.6,7.1c0.6,0.3 1.3,0.4 1.9,0.4c2.1,0 4,-1.3 4.7,-3.4c0.3,-0.8 0.3,-1.5 0.3,-2.2c0,-3.3 -2.1,-6.4 -5,-7.3l0,0s0,0 0,0c-0.5,-0.2 -1,-0.2 -1.6,-0.2c-1.9,0 -3.6,1.2 -4.4,3z" id="svg_45"/>
   <path class="st1" d="m285.6,65s0,0 0,0l0,0c0,0 0,0 0,0c0,1.6 0.8,3.2 1.9,4.6c1.1,1.4 2.6,2.5 4.1,2.9l0.9,0c0.8,0.1 1.6,-0.3 2.2,-0.9c0.7,-0.7 1,-1.6 1,-2.4c0,-0.4 0,-0.7 -0.1,-1.1l0,0c0,0 -0.2,-0.8 -0.2,-0.8l-0.3,-0.4c-2.4,-1.7 -4.9,-3.4 -7.4,-5l-0.9,0c-0.7,0.7 -1.2,1.6 -1.2,2.6l0,0.3s0,0 0,0l0,0.2z" id="svg_46"/>
   <path class="st1" d="m86.6,69.4s0,0 0,0l0,0s0,0 0,0c0,1.9 1.5,3.3 3.2,3.3l1,0c0,-0.1 -0.2,-0.9 -0.2,-0.9l0.2,0.8c1.5,-0.5 2.9,-1.6 4,-3c1.1,-1.4 1.8,-3 1.9,-4.6l0,0s0,-0.2 0,-0.2c0,-1.3 -0.6,-2.5 -1.6,-3.1l-0.8,0c-2.3,1.5 -4.6,3 -6.8,4.5l-0.3,0.3c-0.4,0.8 -0.6,1.7 -0.6,2.6l0,0.2s0,0 0,0l0,0.1z" id="svg_47"/>
   <path class="st1" d="m295.7,94.4c0,2.9 1.9,6.2 4.5,7.5c0.8,0.4 1.6,0.6 2.3,0.6c1,0 2,-0.4 2.7,-1.2c0.7,-0.8 1,-1.8 1,-3l0,0c0,-3.3 -2.2,-6.7 -5.1,-7.8l0,0s0,0 0,0c-0.6,-0.2 -1.1,-0.3 -1.7,-0.3c-0.9,0 -1.8,0.3 -2.5,1c-0.6,0.6 -1,1.5 -1.2,2.6l0,0.7l0,-0.1z" id="svg_48"/>
   <path class="st1" d="m325.7,292.1c-0.5,-0.3 -1,-0.4 -1.5,-0.4c-0.9,0 -1.7,0.4 -2.3,0.8c-2.7,1.9 -4,4.6 -4.2,7.4l0,0c0,1.2 0.3,2.2 0.8,2.9c0.5,0.7 1.4,1.2 2.2,1.1c0.7,0 1.4,-0.2 2.2,-0.7l0,0s0.2,-0.2 0.2,-0.2l0.2,0c1,-1.2 1.9,-2.3 2.8,-3.4l0,0c0.6,-1.3 1.1,-2.6 1.2,-4l-0.8,0c0,0 0.8,0 0.8,0l0,-0.6c0,-1.1 -0.4,-2.4 -1.6,-3.1l0,0.2z" id="svg_49"/>
   <path class="st1" d="m169.3,350.4c-0.7,-0.4 -1.3,-0.5 -2,-0.5c-0.9,0 -1.8,0.4 -2.5,0.9c-1.2,0.8 -1.9,2.1 -1.9,3.5l0,0.9c0,0 0,0 0,0c0,0 0,0 0,0l0,0s0,0 0,0c0.3,1.4 1,2.7 2.2,3.6l0,0s0,0 0,0c0,0 0,0 0,0l0,0c0.4,0.3 0.8,0.6 1.3,0.8l0.2,0c0.8,0.2 1.6,0.3 2.5,0.4l0.3,0s0.9,-0.3 0.9,-0.3l0.1,0c1.7,-0.8 2.4,-2.4 2.4,-3.9l0,0c0,-2.4 -1.4,-4.1 -3.6,-5.3l0.1,-0.1z" id="svg_50"/>
   <path class="st1" d="m262.1,232.8c0,-3.1 -1.6,-5.7 -4.2,-6.6c-0.6,-0.2 -1.2,-0.3 -1.9,-0.3c-1.8,0 -3.6,0.8 -4.8,2.4c-1.1,1.4 -1.7,3 -1.7,4.7c0,0.9 0.2,1.8 0.6,2.8c1,2.5 3.1,3.9 5.5,3.9c1.2,0 2.4,-0.4 3.5,-1.1c2.2,-1.4 2.9,-3.7 3.2,-5.6l0,0l-0.2,-0.2z" id="svg_51"/>
   <path class="st1" d="m210.1,41.6s0,0 0,0c0,0 0,0 0,0l0,0c0.7,1.5 2,2.1 2.9,2.8c0.6,0.4 1.3,0.6 1.9,0.6c2.3,0 4.5,-2.1 4.5,-4.8l0,-0.3s0,0 0,0c-0.2,-1.3 -0.9,-2.6 -2.2,-3.7l-0.4,-0.2c-1.6,-0.2 -3.2,-0.4 -4.8,-0.6l-0.5,0c0,0.1 -0.5,0.5 -0.5,0.5l0,0c-1,0.9 -1.4,2.2 -1.4,3.4c0,0.8 0.2,1.6 0.5,2.3l0,0z" id="svg_52"/>
   <path class="st1" d="m270.8,93.7l0,0.7c0,2.8 1.7,5.7 4.2,7c0.8,0.4 1.7,0.6 2.5,0.6c1.2,0 2.4,-0.5 3.2,-1.4c0.8,-0.8 1.2,-2 1.2,-3.3l0,0s0,-0.2 0,-0.2l0,0l0,0c0,-3.1 -2.4,-6.3 -5.3,-7.2l-0.2,0.8l0.2,-0.8c-0.5,-0.2 -1,-0.2 -1.6,-0.2c-2.2,0 -4,1.7 -4.3,4.1l0.1,-0.1z" id="svg_53"/>
   <path class="st1" d="m292.5,322.1c-0.4,0 -0.7,0 -1.1,0.2l0,0s0,0 0,0l0,0c-1.5,0.5 -2.9,1.6 -3.9,2.9c-1,1.3 -1.8,2.9 -1.9,4.5l0,0.3c0,1.3 0.6,2.5 1.5,3.1l0.9,0c2.3,-1.5 4.6,-3.1 6.9,-4.7l0.3,-0.3c0.3,-0.8 0.6,-1.6 0.6,-2.4l0,-0.5c-0.2,-1.7 -1.6,-3 -3.2,-3l-0.1,-0.1z" id="svg_54"/>
   <path class="st1" d="m238.4,65c0,1.5 0.7,3 1.7,4.2c1,1.2 2.3,2.1 3.8,2.4l1,0c1.2,0 2.3,-0.4 3.1,-1.2c0.8,-0.8 1.2,-2 1.2,-3.3l0,0l0,0c0,-2.8 -2,-5.6 -4.7,-6.5l0,0c-0.6,-0.2 -1.2,-0.3 -1.7,-0.3c-1.2,0 -2.4,0.5 -3.2,1.3c-0.8,0.8 -1.3,2 -1.3,3.4l0.1,0z" id="svg_55"/>
   <path class="st1" d="m246.9,89.5l0,0c-2.1,0.9 -3.4,2.7 -3.4,5l0,0.9c0.3,2 1.4,3.6 2.8,4.8c1.1,1 2.5,1.5 3.9,1.5c0.7,0 1.5,-0.2 2.1,-0.5c1.9,-1 2.8,-2.9 2.8,-4.5l0,0c0,-2.1 -0.8,-4.1 -1.9,-5.3c-1.3,-1.4 -3.1,-2.2 -4.8,-2.2c-0.5,0 -1,0 -1.5,0.3z" id="svg_56"/>
   <path class="st1" d="m248,324.5c-0.8,-0.8 -1.9,-1.3 -3.1,-1.3c-0.5,0 -0.9,0 -1.4,0.2c-1.3,0.4 -2.5,1.2 -3.4,2.4c-0.9,1.1 -1.6,2.5 -1.6,3.8l0,0.4c0,1.3 0.5,2.5 1.3,3.3c0.8,0.8 1.9,1.3 3.2,1.3c0.5,0 1.1,0 1.7,-0.3l-0.2,-0.8l0.2,0.8c2.6,-0.9 4.6,-3.7 4.7,-6.5l0,0c0,-1.4 -0.4,-2.5 -1.2,-3.4l-0.2,0.1z" id="svg_57"/>
   <path class="st1" d="m254.4,155.3s0,0 0,0l0,0c-2.9,0.6 -4.9,3.3 -4.9,6.7l0,0c0,1.4 0.4,3.1 1.6,4.4c1.6,1.7 3.2,2.7 5,2.8c1.7,0 3.3,-0.9 4.7,-2.6c1,-1.2 1.4,-2.5 1.4,-3.9c0,-1.1 -0.3,-2.2 -0.7,-3.3c-1.1,-2.5 -3.4,-4.1 -5.9,-4.1c-0.4,0 -0.8,0 -1.2,0.1l0,0s0,0 0,0l0,-0.1z" id="svg_58"/>
   <path class="st1" d="m256.4,261.1c-0.9,-0.4 -1.7,-0.6 -2.6,-0.6c-1.3,0 -2.5,0.5 -3.6,1.3c-2,1.4 -3,3.6 -3,5.9l0,0.2s0,0 0,0l0,0s0,0 0,0c0,3.4 2.5,5.9 5.5,5.8c1,0 2.1,-0.3 3.2,-0.9c2.4,-1.4 3.3,-3.7 3.6,-6l0,0c0,-1.3 -0.2,-2.4 -0.7,-3.3c-0.5,-1 -1.2,-1.8 -2.3,-2.4l-0.1,0z" id="svg_59"/>
   <path class="st1" d="m269.6,72l0.1,0c1.1,0 2.1,-0.3 2.8,-1.1c0.7,-0.7 1,-1.7 1,-2.8l0,0s0,0 0,0l0,0c0,-1.6 -0.7,-3.1 -1.7,-4.4c-1,-1.3 -2.3,-2.4 -3.7,-2.8l0,0s0,0 0,0c-0.5,-0.1 -0.9,-0.2 -1.3,-0.2c-1.8,0 -3.3,1.2 -3.7,3.1l0,1c0,1.7 0.7,3.5 1.9,4.8c1.2,1.3 2.8,2.3 4.6,2.4z" id="svg_60"/>
   <path class="st1" d="m253.7,294.7c-0.9,-1 -2.2,-1.5 -3.6,-1.5l-0.6,0c-3.5,0.4 -5.9,3.9 -6,7.2c0,0.9 0.2,1.7 0.6,2.5c0.9,1.7 2.6,2.9 4.5,2.9l1,0c0,-0.1 -0.2,-0.9 -0.2,-0.9l0.2,0.8c3.1,-0.8 5.5,-3.8 5.6,-7l0,0s0,0 0,0c0,0 0,0 0,0l0,0s0,0 0,0c0,-1.5 -0.5,-2.9 -1.4,-3.8l-0.1,-0.2z" id="svg_61"/>
   <path class="st1" d="m277.5,292.8c-0.8,0 -1.7,0.2 -2.6,0.7c-2.4,1.3 -4.1,4.2 -4.1,7l0,0.6s0,0 0,0c0,0 0,0 0,0l0,0s0,0 0,0c0.2,2.4 2,4.2 4.3,4.2c0.5,0 0.9,0 1.4,-0.2l-0.2,-0.8l0.2,0.8c2.9,-0.9 5.3,-4 5.4,-7.1l0,-0.2c0,-1.4 -0.5,-2.7 -1.3,-3.5c-0.8,-0.9 -1.9,-1.4 -3.2,-1.4l0.1,-0.1z" id="svg_62"/>
   <path class="st1" d="m268.1,322.8c-0.7,0 -1.4,0.2 -2,0.4c-2.9,1.2 -4.3,3.7 -4.7,6.3l0,0c0,0 0,0.4 0,0.4c0,1.2 0.4,2.3 1.1,3.1c0.7,0.8 1.7,1.2 2.7,1.2c0.7,0 1.3,-0.2 2,-0.5l-0.4,-0.7l0.4,0.7c2.2,-1.1 3.9,-2.9 4.5,-5.5c0.1,-0.5 0.2,-1 0.2,-1.5c0,-1 -0.4,-2.1 -1.3,-2.9c-0.8,-0.6 -1.6,-0.9 -2.5,-0.9l0,-0.1z" id="svg_63"/>
   <path class="st1" d="m287.9,266l0,0s0,0 0,0l0,0s0,-0.3 0,-0.3c0,-1.6 -0.6,-3 -1.5,-3.9c-0.9,-0.9 -2.2,-1.4 -3.5,-1.4c-0.8,0 -1.7,0.2 -2.5,0.6c-2.5,1.3 -4,4.1 -4,6.9c0,0.9 0.1,1.7 0.5,2.6c0.8,1.9 2.5,3.1 4.4,3.1c0.5,0 1,0 1.5,-0.2c2.9,-0.9 5,-4 5.1,-7.3l0,-0.1z" id="svg_64"/>
   <path class="st1" d="m290.5,191.8c-1,-0.9 -2.3,-1.4 -3.5,-1.4c-1.3,0 -2.7,0.5 -3.6,1.5c-1.5,1.5 -2.3,3.4 -2.3,5.5l0,0s0,0 0,0c0,2.2 0.9,4 2.3,5.5c1,1 2.3,1.4 3.6,1.4c1.3,0 2.6,-0.5 3.6,-1.4c1.6,-1.5 2.4,-3.6 2.4,-5.6s-0.8,-4.1 -2.5,-5.6l0,0.1z" id="svg_65"/>
   <path class="st1" d="m286.3,225.8c-0.9,0 -1.9,0.3 -2.8,0.8c-2.4,1.4 -3.4,3.8 -3.6,6.4l0,0s0,0.2 0,0.2c0,1.2 0.3,2.3 0.8,3.3c0.9,2 2.7,3.1 4.7,3.1c1,0 2,-0.3 2.9,-0.8c2.3,-1.4 3.5,-4 3.5,-6.6c0,-1.4 -0.4,-2.8 -1.1,-3.9l-0.7,0.4l0.7,-0.4c-1,-1.5 -2.6,-2.4 -4.3,-2.4l-0.1,-0.1z" id="svg_66"/>
   <path class="st1" d="m104.9,102.1c0.9,0 1.8,-0.3 2.7,-0.8l-0.4,-0.7l0.4,0.7c2.6,-1.5 3.8,-3.9 4,-6.4l0,0c0,-1.6 -0.4,-2.9 -1.2,-3.8c-0.8,-0.9 -1.9,-1.4 -3.2,-1.4c-0.7,0 -1.4,0.1 -2.1,0.4c-2.6,1.1 -4.6,4.1 -4.7,6.9l0,0s0,0 0,0l0,0s0,0 0,0c0,1.4 0.4,2.7 1.2,3.6c0.8,0.9 1.9,1.4 3.2,1.4l0.1,0.1z" id="svg_67"/>
   <path class="st1" d="m43.6,204.3c1.2,0 2.3,-0.6 3.1,-1.6c1.2,-1.5 1.7,-3.4 1.7,-5.3c0,-1.9 -0.6,-3.8 -1.7,-5.3c-0.8,-1 -1.9,-1.6 -3.1,-1.6c-1.2,0 -2.3,0.6 -3.1,1.7c-1.1,1.4 -1.7,3.1 -1.7,4.9l0,0.3s0,0.2 0,0.2c0,1.8 0.6,3.5 1.7,4.9c0.8,1.1 2,1.8 3.2,1.8l-0.1,0z" id="svg_68"/>
   <path class="st1" d="m26.2,202.6l-0.7,-0.4l0.7,0.4c0.9,-1.4 1.3,-2.9 1.3,-4.4l0,-0.5s0,0 0,0l0,0s0,0 0,0l0,0c0,-2.5 -0.4,-4.1 -1.4,-5.5c-0.7,-0.9 -1.6,-1.6 -2.6,-1.6c-1,0 -1.9,0.6 -2.6,1.5c-1.1,1.5 -1.5,3.4 -1.6,5.3c0,1.9 0.5,3.8 1.5,5.3c0.7,1 1.6,1.6 2.6,1.6c1.1,0 2,-0.7 2.7,-1.7l0.1,0z" id="svg_69"/>
   <path class="st1" d="m60.3,292.4c-0.6,-0.4 -1.3,-0.7 -2.1,-0.7c-0.5,0 -1,0.1 -1.5,0.4c-1.2,0.7 -1.7,1.9 -1.7,3l0,0.4s0,0 0,0c0,0 0,0 0,0l0,0s0,0 0,0c0.3,3.1 1.7,5.7 4.2,7.6c0.6,0.5 1.4,0.9 2.3,0.9c0.5,0 1,-0.1 1.5,-0.4c0.7,-0.4 1.2,-1 1.4,-1.7c0.2,-0.6 0.2,-1.3 0.3,-1.9l0,0c-0.3,-3 -1.6,-5.8 -4.4,-7.6z" id="svg_70"/>
   <path class="st1" d="m215.1,349.8l-0.1,0s0,0 0,0c0,0 0,0 0,0l0,0c-1.4,0 -2.8,0.8 -3.7,1.9c-1,1.1 -1.7,2.4 -1.7,3.9l0,0c0,0.1 0,0.1 0,0.1c0,0 0,0 0,0l0,0c0,0 0,0 0,0c0,1.9 1.3,3.5 3,4.1l0.3,0c1,0 2,-0.2 3,-0.3l0.3,0c1.8,-1.1 3.3,-3 3.3,-5.2l0,0c0,-1.3 -0.6,-2.4 -1.4,-3.2c-0.8,-0.8 -1.9,-1.4 -3,-1.4l0,0.1z" id="svg_71"/>
   <path class="st1" d="m139.9,348.1l0,0s0,0 0,0l0,0c-1.1,0 -2,0.4 -2.7,1.1c-0.7,0.7 -1.1,1.7 -1.1,2.8l0,0.2s0,0 0,0l0,0s0.6,0.6 0.6,0.6c2.7,0.8 5.5,1.5 8.3,2.1l0.7,-0.2l0.3,-0.7c0,-1.5 -0.9,-3 -2,-4.1c-1.1,-1.1 -2.5,-1.9 -4,-2l-0.1,0.2z" id="svg_72"/>
   <path class="st1" d="m96.7,329.8l0,0s0,0 0,0c-0.1,-2.7 -2.1,-5.6 -4.8,-7.1c-0.6,-0.3 -1.3,-0.7 -2.2,-0.7c-0.6,0 -1.3,0.2 -1.8,0.7c-0.9,0.7 -1.4,1.8 -1.4,2.8c0,0.4 0,0.9 0.2,1.3c0.2,0.8 0.5,1.6 0.9,2.3l0.2,0.3c1.9,1.3 3.8,2.6 5.8,3.9l0.6,0c1.3,-0.3 2.4,-1.5 2.4,-3.1l0,-0.3s0,0 0,0l0.1,-0.1z" id="svg_73"/>
   <path class="st1" d="m49.8,135.6c0.8,0 1.7,-0.3 2.4,-1c2.4,-1.9 3.4,-4.6 3.7,-7.5l0,-0.2c0,-0.3 0,-0.7 -0.2,-1.2l-0.8,0.2l0.8,-0.2c-0.2,-0.6 -0.4,-1.3 -0.8,-1.9c-0.4,-0.6 -1.1,-1.2 -2,-1.4l-0.8,0c-1.4,0 -2.5,0.7 -3.3,1.7c-0.7,0.9 -1.5,1.8 -1.9,3.1c-0.4,1.1 -0.8,2.3 -0.8,3.7c0,0.8 0.2,1.6 0.6,2.5c0.6,1.4 1.8,2.3 3.1,2.3l0,-0.1z" id="svg_74"/>
   <path class="st1" d="m54.7,269.6l0.7,0.3c0.2,-0.6 0.4,-1.2 0.4,-1.9l0,-0.4s0,0 0,0c-0.2,-2.6 -1.1,-5.1 -3.3,-7c-0.9,-0.8 -1.9,-1.3 -2.9,-1.3c-1.5,0 -2.7,1.1 -3.3,2.8c-0.2,0.7 -0.3,1.3 -0.4,1.6l0,0.2c0.2,3 1.2,5.5 3.3,7.4c0.8,0.8 1.8,1.2 2.7,1.2c1.5,0 2.8,-1.1 3.4,-2.7l-0.7,-0.3l0.1,0.1z" id="svg_75"/>
   <path class="st1" d="m49.6,236.4l-0.7,-0.3l0.7,0.3c0.5,-1 0.7,-2.2 0.7,-3.3c0,-2.7 -1.2,-5.5 -3.4,-7c-0.6,-0.5 -1.3,-0.7 -2.1,-0.7c-0.9,0 -1.7,0.4 -2.3,1.1c-1.3,1.2 -1.8,2.9 -1.8,4.5l0,0.4s0,0.3 0,0.3c0,2.2 0.8,4.2 2.2,5.8c0.9,1 2,1.6 3.1,1.6c1.5,0 2.8,-1 3.6,-2.6l0,-0.1z" id="svg_76"/>
   <path class="st1" d="m42.3,168.3c0.7,0.8 1.6,1.2 2.6,1.2c0.8,0 1.5,-0.3 2.2,-0.8l-0.5,-0.6l0.5,0.6c2.1,-1.6 3.2,-4.4 3.2,-7c0,-1.1 -0.2,-2.1 -0.6,-3.1c-0.7,-1.7 -2.1,-2.8 -3.6,-2.8c-1.3,0 -2.5,0.7 -3.4,1.9c-1.2,1.5 -1.9,3.4 -1.9,5.4l0,0.2s0,0.6 0,0.6c0,1.5 0.4,3.1 1.6,4.3l-0.1,0.1z" id="svg_77"/>
   <path class="st1" d="m241.9,348.3l0,0s0,0 0,0l0,0s0,0 0,0l0,0c-1.5,0 -2.9,0.8 -4,1.8c-1.1,1.1 -1.9,2.5 -2.1,4l0.3,0.7l0.7,0.2c2.8,-0.7 5.5,-1.4 8.2,-2.2c0.4,-0.1 0.6,-0.4 0.6,-0.8c0,-2 -1.6,-3.7 -3.6,-3.7l-0.1,0z" id="svg_78"/>
   <path class="st1" d="m27.1,226.1c-0.6,-0.6 -1.4,-1 -2.2,-1c-1,0 -1.9,0.6 -2.5,1.6c-0.7,1.1 -1,2.5 -1,4c0,2.7 1,5.7 2.9,7.2c0.6,0.5 1.3,0.8 2,0.8c1,0 1.9,-0.7 2.5,-1.6l-0.7,-0.4l0.7,0.4c0.7,-1.2 0.9,-2.5 1,-3.9l0,0c-0.2,-2.4 -0.7,-5 -2.6,-7l-0.1,-0.1z" id="svg_79"/>
   <path class="st1" d="m24.9,169.8c1,0 1.9,-0.6 2.6,-1.4c1.7,-2 2.1,-4.4 2.2,-6.6l0,0c0,-1.3 -0.3,-2.5 -0.8,-3.6l-0.7,0.4l0.7,-0.4c-0.6,-1.2 -1.5,-2 -2.7,-1.9c-0.9,0 -1.7,0.4 -2.4,1.2c-1.6,1.6 -2.4,4.3 -2.4,6.8c0,1.3 0.2,2.5 0.7,3.5c0.6,1.2 1.6,2 2.7,2.1l0.1,-0.1z" id="svg_80"/>
   <path class="st1" d="m341.3,192.7l0.6,-0.5c-0.8,-1.1 -2,-1.7 -3.2,-1.7c-1.2,0 -2.3,0.6 -3.1,1.7c-1.2,1.5 -1.7,3.3 -1.7,5.1l0,0.2s0,0 0,0l0,0s0,0 0,0c0,2 0.6,3.8 1.7,5.2c0.8,1 1.9,1.6 3.1,1.6c1.2,0 2.3,-0.6 3.2,-1.8c1.1,-1.5 1.7,-3.3 1.7,-5.2c0,-1.8 -0.6,-3.7 -1.7,-5.2l-0.6,0.5l0,0.1z" id="svg_81"/>
   <path class="st1" d="m340.1,226.6c-0.7,-0.8 -1.6,-1.3 -2.5,-1.3c-0.8,0 -1.5,0.3 -2.2,0.8c-2.1,1.6 -3.3,4.3 -3.3,6.9c0,1 0.2,2.1 0.6,3.1c0.7,1.8 2.1,2.8 3.7,2.8c1.2,0 2.4,-0.7 3.4,-1.9l-0.6,-0.5l0.6,0.5c1.2,-1.6 2,-3.4 2,-5.5l0,-0.3s0,-0.4 0,-0.4c0,-1.5 -0.4,-3.1 -1.6,-4.3l-0.1,0.1z" id="svg_82"/>
   <path class="st1" d="m359.3,227.2l0.7,-0.4c-0.6,-1.1 -1.5,-1.8 -2.6,-1.8c-0.9,0 -1.7,0.5 -2.3,1.3c-1.6,1.9 -2.5,4.1 -2.5,6.4c0,1.1 0.2,2.2 0.5,3.3c0.2,0.5 0.4,1.1 0.9,1.6c0.4,0.5 1.1,0.8 1.8,0.9l0.3,0c1.3,0 2.2,-0.8 2.8,-1.6l0,-0.3c0.8,-2.5 1.4,-5 1.9,-7.5l0,-0.3c-0.1,-0.7 -0.4,-1.4 -0.7,-2l-0.7,0.4l-0.1,0z" id="svg_83"/>
   <path class="st1" d="m163.6,305.8l-0.2,-0.8l0.2,0.8c2.4,-0.7 4.1,-3.2 4.2,-5.7l0,0s0,0 0,0c0,-2.6 -1.8,-5.3 -4.2,-6.3c-0.7,-0.3 -1.5,-0.5 -2.2,-0.5c-1.4,0 -2.8,0.6 -3.8,1.8c-1.1,1.2 -1.6,2.7 -1.6,4.2c0,1.3 0.4,2.6 1.2,3.7c1.3,1.8 3.3,3 5.4,3c0.4,0 0.9,0 1.3,-0.2l-0.3,0z" id="svg_84"/>
   <path class="st1" d="m322.2,102.5l0.4,-0.7l-0.4,0.7c0.7,0.4 1.4,0.6 2.1,0.6c0.9,0 1.7,-0.3 2.2,-1c0.6,-0.6 0.8,-1.5 0.8,-2.5l0,-0.2s0,0 0,0c0,-1.1 -0.3,-2.1 -0.7,-3l0,-0.2c-1.5,-1.6 -2.9,-3.3 -4.4,-4.8l-0.3,-0.2c-0.4,-0.2 -0.8,-0.3 -1.3,-0.3c-0.5,0 -1,0.1 -1.4,0.4c-0.7,0.4 -1.2,1 -1.4,1.7c-0.2,0.6 -0.2,1.3 -0.3,1.9l0,0c0.4,3 1.6,5.9 4.5,7.7l0.2,-0.1z" id="svg_85"/>
   <path class="st1" d="m318.5,231.6c-0.1,-1.1 -0.2,-2.4 -1,-3.7c-1,-1.5 -2.3,-2.4 -3.8,-2.4c-1,0 -2.1,0.4 -3,1.1l0,0s0,0 0,0c0,0 0,0 0,0c-1.9,1.4 -3,3.8 -3,6.3c0,0.9 0.2,1.9 0.5,2.8c0.8,2.1 2.5,3.4 4.4,3.4c1.4,0 2.8,-0.7 3.9,-2c1.3,-1.6 1.9,-3.4 2,-5.5l0,0z" id="svg_86"/>
   <path class="st1" d="m314.6,190.5c-1.3,0 -2.5,0.6 -3.5,1.6c-1.3,1.5 -1.9,3.4 -1.9,5.3s0.6,3.9 2,5.3c0.9,1.1 2.2,1.6 3.5,1.6c1.2,0 2.5,-0.5 3.4,-1.6c1.4,-1.5 2,-3.4 2,-5.4l0,0s0,0 0,0l0,0c0,-2 -0.7,-3.9 -2.1,-5.3l-0.6,0.5l0.6,-0.5c-0.9,-1 -2.2,-1.6 -3.4,-1.6l0,0.1z" id="svg_87"/>
   <path class="st1" d="m363,197.5l0,0c0,-1.9 -0.5,-3.7 -1.4,-5.1c-0.7,-1.1 -1.7,-1.8 -2.8,-1.8c-1.1,0 -2.1,0.7 -2.7,1.9l0,0c-0.9,1.6 -1.3,3.3 -1.3,5c0,1.7 0.5,3.4 1.4,5c0.6,1.1 1.6,1.9 2.7,1.9c1.1,0 2.1,-0.7 2.8,-1.9c0.9,-1.5 1.3,-3.1 1.3,-4.8l0,0c0,0 0,-0.1 0,-0.1l0,-0.1z" id="svg_88"/>
   <path class="st1" d="m357.4,169.8c1,0 1.9,-0.7 2.5,-1.6c0.4,-0.6 0.6,-1.2 0.8,-1.8l0,-0.3c-0.6,-2.7 -1.2,-5.3 -1.9,-8l0,-0.2c0,0 0,0 0,0l0,0c-0.7,-1 -1.6,-1.5 -2.5,-1.5c-1.2,0 -2.1,0.8 -2.7,1.9c-0.5,1 -0.8,2.3 -0.8,3.6c0,2.6 0.9,5.5 2.7,7.1c0.6,0.6 1.4,0.9 2.1,0.9l-0.2,-0.1z" id="svg_89"/>
   <path class="st1" d="m327,125c-0.2,0.6 -0.4,1.3 -0.4,2l0,0.5s0,0 0,0c0,0 0,0 0,0l0,0s0,0 0,0c0.3,2.5 1.2,4.9 3.2,6.7c0.9,0.8 1.9,1.3 2.9,1.3c1.5,0 2.7,-1.1 3.3,-2.8c0.2,-0.7 0.3,-1.3 0.4,-1.6l0,-0.2c-0.2,-3 -1.2,-5.5 -3.2,-7.4c-0.8,-0.8 -1.8,-1.2 -2.7,-1.2c-1.5,0 -2.8,1.1 -3.4,2.7l0,0l-0.1,0z" id="svg_90"/>
   <path class="st1" d="m332.7,158.6l0,0c-0.4,1 -0.6,2.1 -0.6,3.2c0,2.7 1.2,5.5 3.3,7.1c0.6,0.5 1.4,0.7 2.1,0.7c0.9,0 1.8,-0.4 2.5,-1.1c1.2,-1.2 1.7,-2.8 1.7,-4.4l0,-0.4s0,-0.4 0,-0.4c0,-2.1 -0.8,-4.1 -2.1,-5.7c-0.9,-1.1 -2.1,-1.7 -3.2,-1.7c-1.5,0 -2.9,1 -3.6,2.7l-0.1,0z" id="svg_91"/>
   <path class="st1" d="m335.7,261.5c-0.4,-0.8 -1,-1.5 -2,-1.9c-0.4,-0.2 -0.8,-0.3 -1.2,-0.3c-1.5,0 -2.5,1.1 -3.2,1.8l0,0s-0.4,0.5 -0.4,0.5l0,0c-1.2,1.8 -2.2,3.7 -2.2,5.9c0,0.8 0.1,1.6 0.4,2.4c0.5,1.6 1.8,2.6 3.3,2.6c0.9,0 1.9,-0.4 2.7,-1.2l-0.5,-0.6l0.5,0.6c2.1,-2 3.2,-4.5 3.4,-7.4l0,-0.2c-0.1,-0.7 -0.2,-1.6 -0.6,-2.3l-0.2,0.1z" id="svg_92"/>
   <path class="st1" d="m128.9,273.6l0.3,0c1.4,0 2.6,-0.3 3.6,-0.9c1,-0.6 1.6,-1.6 2,-2.8c0.3,-0.8 0.4,-1.6 0.4,-2.4c0,-1.7 -0.7,-3.3 -1.8,-4.7c-1.3,-1.6 -3.1,-2.4 -4.9,-2.4c-1.6,0 -3.2,0.7 -4.2,2c-0.9,1.2 -1.4,2.5 -1.4,3.9c0,1 0.2,2 0.7,3.1c1,2.4 2.9,4 5.2,4.2l0,0l0.1,0z" id="svg_93"/>
   <path class="st1" d="m131.4,237.5l-0.6,-0.5l0.6,0.5c1,-1.3 1.5,-2.9 1.5,-4.5c0,-1.7 -0.5,-3.4 -1.6,-4.7c-1.3,-1.5 -3.1,-2.4 -4.9,-2.4c-1.3,0 -2.5,0.4 -3.6,1.2c-1.7,1.3 -2.2,3.2 -2.5,5l0,0c0,2.1 0.6,3.9 1.9,5.4c1.2,1.4 3,2.1 4.7,2.1c1.7,0 3.4,-0.7 4.5,-2.1z" id="svg_94"/>
   <path class="st1" d="m136,305.2c1.9,-1 2.8,-2.7 2.8,-4.3l0,0c0,-3.1 -1.4,-5.1 -3.2,-6.6c-1,-0.8 -2.1,-1.2 -3.3,-1.2c-0.7,0 -1.4,0.2 -2.2,0.5c-1.9,0.8 -2.9,2.6 -2.9,4.5l0,0.4c0,2.7 1.3,5 3.7,6.4l0,0c0.9,0.5 1.9,0.9 2.9,0.9c0.7,0 1.4,-0.2 2.1,-0.6l0.1,0z" id="svg_95"/>
   <path class="st1" d="m94.4,129.2c0,0.6 0,1.2 0.2,1.7c0.6,2.2 2.6,3.7 4.8,3.7c0.7,0 1.4,-0.2 2.1,-0.5c3,-1.4 4.2,-4 4.6,-6.9l0,-0.2c-0.1,-1 -0.3,-1.9 -0.7,-2.8c-0.4,-0.9 -1.1,-1.7 -2.2,-2.3c-0.7,-0.4 -1.5,-0.6 -2.2,-0.6c-1.2,0 -2.3,0.5 -3.2,1.1l0,0c-2.1,1.4 -3.3,4.1 -3.3,6.7l-0.1,0.1z" id="svg_96"/>
   <path class="st1" d="m139.6,334.6c2.4,0 4.3,-1.8 4.4,-4.4l0,-0.3c0,-1.6 -0.8,-3.2 -1.9,-4.4c-1.1,-1.2 -2.6,-2.1 -4.2,-2.2l-0.4,0c-1.2,0 -2.2,0.4 -3,1.1c-0.8,0.7 -1.2,1.8 -1.3,2.9l0,0.5c0,2.9 2,5.7 4.8,6.6c0.5,0.2 1.1,0.2 1.6,0.2z" id="svg_97"/>
   <path class="st1" d="m144.1,45.3l0.6,0s-0.1,-0.8 -0.1,-0.8l0,0.8c1.4,-0.2 2.6,-1 3.5,-1.9c0.9,-1 1.7,-2.2 1.9,-3.5l-0.2,-0.7l-0.7,-0.2c-2.8,0.6 -5.5,1.3 -8.2,2.1c-0.4,0.1 -0.6,0.5 -0.6,0.9c0.2,2 1.8,3.4 3.7,3.4l0.1,-0.1z" id="svg_98"/>
   <path class="st1" d="m126.2,169.1l0.9,0c3.3,-0.7 5.8,-4 5.8,-7.6l0,0s0,0 0,0l0,0c-0.1,-1.1 -0.4,-2.2 -0.9,-3.3c-0.5,-1 -1.4,-1.9 -2.7,-2.5c-0.8,-0.4 -1.7,-0.5 -2.5,-0.5c-1.5,0 -2.9,0.6 -4.1,1.6c-1.6,1.4 -2.4,3.5 -2.4,5.6c0,1.5 0.5,3.1 1.5,4.3l0,0s0,0 0,0l0,0c1.1,1.3 2.6,2.4 4.5,2.4l-0.1,0z" id="svg_99"/>
   <path class="st1" d="m163.9,71.4l1,0c2.8,-0.6 5.1,-3.3 5.1,-6.2l0,-0.2s0,0 0,0c0,-2.8 -2.3,-5 -5.1,-5l0,0.8l0,-0.8c-1.6,0 -3.1,0.8 -4.2,2c-1.1,1.2 -1.8,2.7 -1.8,4.3l0,0.9c0.5,2.5 2.5,4.3 5,4.2z" id="svg_100"/>
   <path class="st1" d="m165.2,334.9c1.8,0 3.4,-1 4.3,-2.9c0.3,-0.7 0.5,-1.5 0.5,-2.3c0,-2.7 -1.9,-5.4 -4.7,-6.1c-0.4,0 -0.9,-0.1 -1.3,-0.1c-2.5,0 -4.6,1.8 -5,4.4l0,0.7c0,3.1 2.8,6.2 6.2,6.3l0,0z" id="svg_101"/>
   <path class="st1" d="m127.4,97.5s0,0 0,0l0,0s0,0 0,0c0.5,2.5 2.6,4.2 5,4.2c0.9,0 1.8,-0.2 2.6,-0.7c2.4,-1.3 3.9,-3.5 4,-6.3l0,0c0,-3.1 -2.2,-5.6 -4.9,-5.7l-0.5,0c-3.5,0.5 -6.2,3.9 -6.2,7.3c0,0.4 0,0.8 0.1,1.2l0,0l-0.1,0z" id="svg_102"/>
   <path class="st1" d="m137.5,71.7c0.5,0 0.9,0 1.4,-0.2l-0.2,-0.8l0.2,0.8c2.7,-0.7 4.9,-3.4 5.1,-6.2l0,-0.4c0,-1.3 -0.5,-2.5 -1.3,-3.3c-0.8,-0.8 -1.9,-1.3 -3.2,-1.3c-0.5,0 -1.1,0 -1.6,0.3c-2.6,0.9 -4.6,3.6 -4.7,6.4l0,0s0,0.1 0,0.1c0,1.3 0.4,2.5 1.2,3.3c0.8,0.8 1.9,1.3 3.1,1.3z" id="svg_103"/>
   <path class="st1" d="m96.1,169.2c1.1,0 2.2,-0.4 3.3,-1.1c2.1,-1.5 3,-3.7 3.2,-5.7l0,0c0,0 0,-0.3 0,-0.3c0,-1.4 -0.3,-2.4 -0.7,-3.4c-0.9,-2.1 -2.8,-3.3 -4.8,-3.3c-1.1,0 -2.1,0.3 -3.1,1c-2.1,1.4 -3.2,4 -3.2,6.4c0,1.3 0.3,2.6 1,3.8l0,0c1,1.7 2.6,2.6 4.3,2.6z" id="svg_104"/>
   <path class="st1" d="m73.6,237.1c0.7,-1.2 1.1,-2.6 1.1,-4l0,0c-0.3,-2.3 -0.8,-4.8 -3.2,-6.4c-1,-0.7 -1.9,-1 -2.9,-1c-1.3,0 -2.5,0.7 -3.5,2c-0.9,1.2 -1.3,2.6 -1.3,4.1c0,2.8 1.4,5.8 3.9,7.1l0,0c0.7,0.3 1.4,0.5 2.1,0.5c1.5,0 2.9,-0.8 3.8,-2.1l0,-0.2z" id="svg_105"/>
   <path class="st1" d="m56.6,102.7c0.5,0.3 1,0.5 1.6,0.5c0.9,0 1.6,-0.4 2.3,-0.8c2.8,-1.8 4,-4.6 4.3,-7.4l0,0c0,-1.3 -0.3,-2.2 -0.8,-3c-0.5,-0.7 -1.4,-1.2 -2.2,-1.2c-0.7,0 -1.4,0.2 -2.1,0.6l0,0s-0.7,0.5 -0.7,0.5l0,0c-2,1.9 -3.4,4.2 -3.7,7l0,0.6c0,1.1 0.4,2.4 1.6,3.1l-0.3,0.1z" id="svg_106"/>
   <path class="st1" d="m92,203.2l0.5,-0.6l-0.5,0.6c1,0.8 2.2,1.2 3.4,1.2c1.3,0 2.7,-0.5 3.7,-1.5c1.5,-1.5 2.3,-3.3 2.3,-5.4l0,0c0,0 0,0 0,0c0,-2.1 -0.8,-4 -2.3,-5.5c-1,-1 -2.3,-1.4 -3.6,-1.4c-1.2,0 -2.5,0.4 -3.4,1.3c-1.7,1.5 -2.6,3.6 -2.6,5.7c0,2.1 0.9,4.3 2.6,5.8l-0.1,-0.2z" id="svg_107"/>
   <path class="st1" d="m78.2,102.1l0,0s0,0 0,0l0,0c0.6,0.3 1.2,0.5 1.9,0.5c1,0 1.9,-0.4 2.7,-0.9c2.5,-1.7 3.9,-4.3 4,-7.3l0,0c0,-1.3 -0.4,-2.3 -1,-3.1c-0.7,-0.7 -1.6,-1.1 -2.6,-1.1c-0.7,0 -1.5,0.2 -2.2,0.6c-2.9,1.5 -4.2,4.1 -4.6,6.6l0,0c0,0.1 0,0.4 0,0.4c0,0.9 0,1.7 0.3,2.4c0.3,0.8 0.8,1.4 1.6,1.9l-0.1,0z" id="svg_108"/>
   <path class="st1" d="m63.9,163.1c0,1.9 0.5,3.3 1.5,4.5c1,1.1 2.1,1.8 3.4,1.8c1,0 2,-0.4 2.9,-1.1c2,-1.5 3,-3.9 3,-6.3c0,-0.9 -0.2,-1.8 -0.5,-2.7c-0.8,-2.2 -2.6,-3.5 -4.5,-3.5c-1.4,0 -2.8,0.7 -3.9,2c-1.3,1.6 -2,3.5 -2,5.5l0,0l0.1,-0.2z" id="svg_109"/>
   <path class="st1" d="m79.2,267.7l0,0s0,0 0,0c0,-3 -1.6,-5.7 -4.2,-7.2c-0.8,-0.4 -1.5,-0.7 -2.3,-0.7c-1.1,0 -2.1,0.6 -2.9,1.6c-0.9,1 -1.3,2.3 -1.3,3.6l0,0.9c0.3,1.7 0.9,3.3 2,4.7c1.2,1.6 2.8,2.5 4.4,2.5c0.4,0 0.8,0 1.2,-0.2c2,-0.7 3.1,-2.7 3.1,-5.2z" id="svg_110"/>
   <path class="st1" d="m86.7,300.2c0,-1.5 -0.6,-3.2 -1.6,-4.6c-0.9,-1.2 -2,-2.5 -3.7,-3c-0.5,-0.1 -1,-0.2 -1.4,-0.2c-0.9,0 -1.8,0.3 -2.4,0.9c-0.6,0.6 -1,1.5 -1.2,2.5l0,0.9c0,3 1.9,6.2 4.5,7.5c0.7,0.3 1.5,0.5 2.1,0.5c1,0 2,-0.4 2.7,-1.2c0.7,-0.8 1,-1.9 1,-3.2l0,0l0,-0.1z" id="svg_111"/>
   <path class="st1" d="m64.3,202.8s0,0 0,0l0,0c1,1.1 2.2,1.6 3.5,1.6c1.3,0 2.6,-0.6 3.6,-1.7c1.3,-1.5 1.9,-3.4 1.9,-5.2c0,-1.9 -0.6,-3.8 -1.9,-5.2c-1,-1.1 -2.2,-1.7 -3.5,-1.7c-1.3,0 -2.5,0.6 -3.5,1.7c-1.3,1.4 -1.9,3.1 -2,5l0,0l0,0.4c0,2 0.7,3.8 2,5.3l0,0s0,0 0,0l-0.1,-0.2z" id="svg_112"/>
   <path class="st1" d="m111.6,300.5l0,0c0,-2.7 -1.7,-5.6 -4,-6.9c-0.9,-0.5 -1.8,-0.8 -2.7,-0.8c-1.2,0 -2.4,0.5 -3.2,1.4c-0.8,0.9 -1.3,2.1 -1.3,3.6c0,1.5 0.6,2.9 1.4,4.2c0.9,1.3 2,2.3 3.4,2.8l0,0c0.7,0.3 1.3,0.4 2,0.4c1.2,0 2.3,-0.5 3.1,-1.3c0.8,-0.8 1.2,-2 1.2,-3.4l0,0l0.1,0z" id="svg_113"/>
   <path class="st1" d="m101,273.4c1.9,0 3.6,-1.1 4.4,-3c0.4,-0.9 0.5,-1.8 0.5,-2.7c0,-2.2 -1,-4.4 -2.7,-5.9c-1.1,-0.9 -2.4,-1.6 -3.8,-1.6c-0.7,0 -1.4,0.2 -2.2,0.5c-2.1,0.9 -2.9,2.9 -2.9,4.9l0,0.2s0,0 0,0c0,0 0,0 0,0l0,0s0,0 0,0c0,3.4 2.2,6.5 5.2,7.3l0.2,-0.8l-0.2,0.8c0.5,0.1 0.9,0.2 1.4,0.2l0.1,0.1z" id="svg_114"/>
   <path class="st1" d="m101.2,228.7c-1.1,-1.6 -2.7,-3 -5,-3l-0.7,0c-2.4,0.4 -4.2,2.4 -4.7,5c0,0.5 -0.1,1 -0.1,1.6c0,2.4 1.1,4.5 3,6l0,0c1,0.8 2.2,1.2 3.3,1.2c1.8,0 3.5,-1 4.5,-2.6c0.7,-1.1 1,-2.4 1,-3.8l0,0s0,0 0,0l0,0c0,-1.6 -0.4,-3.1 -1.3,-4.4z" id="svg_115"/>
   <path class="st1" d="m112.5,72.1c0.7,0 1.3,-0.1 1.9,-0.4c1.4,-0.5 2.6,-1.5 3.4,-2.8c0.9,-1.2 1.4,-2.7 1.5,-4.1l0,0s0,0 0,0c0,0 0,0 0,0l0,0s0,0 0,0c0,-2.3 -1.8,-4 -3.8,-4c-0.7,0 -1.4,0.2 -2.1,0.5c0,0 0,0 0,0l0,0c-2.2,1.2 -3.9,3 -4.5,5.6c-0.1,0.5 -0.2,1 -0.2,1.5c0,1 0.3,2 1.2,2.8c0.8,0.7 1.7,1 2.6,1l0,-0.1z" id="svg_116"/>
   <path class="st1" d="m114.3,322.8c-1.1,0 -2.1,0.4 -2.8,1c-0.7,0.7 -1.1,1.7 -1.1,2.7l0,0.8c0.5,3 2.4,5 4.9,6.3l0,0c0.6,0.3 1.3,0.5 1.9,0.5c1.8,0 3.3,-1.2 3.7,-3.1c0,-0.4 0.1,-0.7 0.1,-1.1c0,-1.8 -0.9,-3.5 -2.1,-4.9c-1.2,-1.3 -2.9,-2.3 -4.6,-2.3l0,0.1z" id="svg_117"/>
   <path class="st1" d="m72.9,135.2c0.7,0 1.4,-0.2 2.1,-0.6c2.8,-1.6 4.1,-4.2 4.2,-6.8l0,0c0,0 0,-0.1 0,-0.1l0,0c0,-1.4 -0.2,-2.6 -0.7,-3.5c-0.5,-1 -1.2,-1.7 -2.2,-2c-0.4,-0.2 -0.9,-0.3 -1.4,-0.3c-1.6,0 -3.1,0.9 -4.3,2.4l0,0s0,0 0,0l0,0c-1.2,1.5 -1.9,3.2 -2.1,5.1l0,0.7c0,1.5 0.5,3 1.7,4.1c0.8,0.7 1.7,1.2 2.6,1.2l0.1,-0.2z" id="svg_118"/>
   <path class="st1" d="m351.6,259.4l-0.5,0c-1.4,0 -2.2,0.9 -2.9,1.5l0,0s-0.3,0.4 -0.3,0.4l0,0c-1.1,1.6 -2,3.3 -2,5.3c0,0.7 0.1,1.4 0.4,2.2c0.3,0.8 0.7,1.3 1.2,1.7l0.7,0c0,0.1 0.5,-0.3 0.5,-0.3c2,-4 3.1,-7.5 3.6,-9.8l0,-0.6c-0.1,0 -0.6,-0.4 -0.6,-0.4l-0.1,0z" id="svg_119"/>
   <path class="st1" d="m34.7,261.3l-0.4,-0.4l0,0c-0.7,-0.7 -1.5,-1.6 -2.9,-1.6l-0.5,0s-0.5,0.4 -0.5,0.4l0,0.6c0.5,2.3 1.5,5.8 3.5,9.8l0.5,0.4l0.7,0c0.5,-0.5 1,-1.1 1.2,-1.8c0.3,-0.7 0.4,-1.5 0.4,-2.2c0,-2 -0.9,-3.6 -2,-5.2l0,0z" id="svg_120"/>
   <path class="st1" d="m33.6,133l0,0s0.3,-0.4 0.3,-0.4l0,0c1,-1.6 1.9,-3.3 1.9,-5.2c0,-0.7 -0.1,-1.5 -0.4,-2.3c-0.3,-0.8 -0.8,-1.3 -1.2,-1.7l-0.7,0c0,-0.1 -0.5,0.3 -0.5,0.3c-1.9,4 -2.9,7.6 -3.5,9.9l0,0.6c0.1,0 0.6,0.3 0.6,0.3l0.5,0c1.4,0 2.2,-0.9 2.9,-1.6l0.1,0.1z" id="svg_121"/>
   <path class="st1" d="m346.7,132.6l0.3,0.4l0,0c0.7,0.7 1.5,1.6 2.9,1.7l0.5,0s0.5,-0.4 0.5,-0.4l0,-0.6c-0.4,-2.3 -1.4,-5.9 -3.4,-9.9l-0.5,-0.4l-0.7,0c-0.5,0.5 -1,1.1 -1.3,1.8c-0.3,0.8 -0.4,1.5 -0.4,2.3c0,1.9 0.8,3.6 1.9,5.1l0,0l0.2,0z" id="svg_122"/>
   <path class="st1" d="m191.1,80.4c8,0 14.5,-6.5 14.5,-14.5s-10.7,-19.3 -14.5,-30.7c-4.1,11.9 -14.5,22.7 -14.5,30.7s6.5,14.5 14.5,14.5zm10,-16.5c1.9,3.9 0,8.6 -2.9,9.9c0.3,-1.6 0.5,-10 -5.8,-26.3c0,0 6.8,12.5 8.7,16.4z" id="svg_123"/>
   <path class="st2" d="m198.1,73.8c2.9,-1.3 4.8,-6 2.9,-9.9s-8.7,-16.4 -8.7,-16.4c6.3,16.2 6.1,24.6 5.8,26.3z" id="svg_124"/>
   <path class="st0" d="m252.2,205.3l11.9,0c1.2,0 2.2,-1 2.2,-2.2l0,-13.3c0,-1.2 -1,-2.2 -2.2,-2.2l-13.3,0c-1.2,0 -2.2,1 -2.2,2.2l0,11.5l-21.1,23.7l-10.6,0c-1.2,0 -2.2,1 -2.2,2.2l0,12.1l-12.4,14c-1.4,-0.8 -3,-1.3 -4.7,-1.3l-4,0l0,-8.4l4,0c1.3,0 2.4,-1.1 2.4,-2.4l0,-14.6c0,-1.3 -1.1,-2.4 -2.4,-2.4l-4,0l0,-12.2l4,0c5.3,0 9.6,-4.3 9.6,-9.6l0,-13.2c0,-1.3 -0.3,-2.5 -0.7,-3.7l13.7,-15.4l10.1,0c1.2,0 2.2,-1 2.2,-2.2l0,-11.5l18.9,-21.1l11.6,0c1.2,0 2.2,-1 2.2,-2.2l0,-13.3c0,-1.2 -1,-2.2 -2.2,-2.2l-13.3,0c-1.2,0 -2.2,1 -2.2,2.2l0,11.8l-18.7,20.9l-11.8,0c-1.2,0 -2.2,1 -2.2,2.2l0,13.3s0,0 0,0.1l-11.8,13.2c-1.5,-1.1 -3.4,-1.7 -5.4,-1.7l-4,0l0,-8.4l4,0c1.3,0 2.4,-1.1 2.4,-2.4l0,-14.6c0,-1.3 -1.1,-2.4 -2.4,-2.4l-4,0l0,-10.2l4,0c5.3,0 9.6,-4.3 9.6,-9.6l0,-13.2c0,-1.2 -0.3,-2.4 -0.7,-3.5l10.6,-11.2c0.3,0.1 0.6,0.2 0.9,0.2l13.3,0c1.2,0 2.2,-1 2.2,-2.2l0,-13.3c0,-1.2 -1,-2.2 -2.2,-2.2l-13.3,0c-1.2,0 -2.2,1 -2.2,2.2l0,8.8l-12.7,13.3c-1.6,-1.1 -3.5,-1.8 -5.6,-1.8l-13.2,0c-1.7,0 -3.4,0.5 -4.8,1.3l-9.2,-11.1l0,-10.6c0,-1.2 -1,-2.2 -2.2,-2.2l-13.3,0c-1.2,0 -2.2,1 -2.2,2.2l0,13.3c0,1.2 1,2.2 2.2,2.2l12.6,0l8.4,10.1c-0.7,1.3 -1.1,2.7 -1.1,4.3l0,13.2c0,5.3 4.3,9.6 9.6,9.6l3.8,0l0,10.2l-5.2,0c-1.3,0 -2.4,1.1 -2.4,2.4l0,14.6c0,1.3 1.1,2.4 2.4,2.4l5.2,0l0,8.4l-3.8,0c-2.2,0 -4.2,0.8 -5.8,2l-11,-12.3c0.3,-0.4 0.5,-0.9 0.5,-1.4l0,-13.3c0,-1.2 -1,-2.2 -2.2,-2.2l-13.3,0s0,0 -0.1,0l-16.1,-18.1c0,0 0,-0.1 0,-0.2l0,-13.3c0,-1.2 -1,-2.2 -2.2,-2.2l-13.3,0c-1.2,0 -2.2,1 -2.2,2.2l0,13.3c0,1.2 1,2.2 2.2,2.2l10,0l19.5,21.8l0,9.7c0,1.2 1,2.2 2.2,2.2l8.5,0l14.2,15.9c-0.3,1 -0.6,2 -0.6,3.1l0,13.2c0,5.3 4.3,9.6 9.6,9.6l3.8,0l0,12.2l-5.2,0c-1.3,0 -2.4,1.1 -2.4,2.4l0,14.6c0,1.3 1.1,2.4 2.4,2.4l5.2,0l0,8.4l-3.8,0c-1.9,0 -3.8,0.6 -5.3,1.6l-10.3,-11.4c0.1,-0.3 0.2,-0.6 0.2,-1l0,-14.6c0,-1.3 -1.1,-2.4 -2.4,-2.4l-14.1,0l-19.8,-22l0,-12.3c0,-1.2 -1,-2.2 -2.2,-2.2l-13.3,0c-1.2,0 -2.2,1 -2.2,2.2l0,13.3c0,1.2 1,2.2 2.2,2.2l11.1,0l21.1,23.5l0,12.3c0,1.3 1.1,2.4 2.4,2.4l10.8,0l12.8,14.2c-0.5,1.2 -0.8,2.5 -0.8,3.8l0,13.2c0,5.3 4.3,9.6 9.6,9.6l3.8,0l0,8.4l-4,0c-1.2,0 -2.2,1 -2.2,2.2l0,13.3c0,1.2 1,2.2 2.2,2.2l4,0l0,13.8l-4,0c-1.2,0 -2.2,1 -2.2,2.2l0,13.3c0,1.2 1,2.2 2.2,2.2l13.3,0c1.2,0 2.2,-1 2.2,-2.2l0,-13.3c0,-1.2 -1,-2.2 -2.2,-2.2l-4,0l0,-13.8l4,0c1.2,0 2.2,-1 2.2,-2.2l0,-13.3c0,-1.2 -1,-2.2 -2.2,-2.2l-4,0l0,-8.4l4,0c5.3,0 9.6,-4.3 9.6,-9.6l0,-13.2c0,-1.6 -0.4,-3.1 -1.1,-4.4l12.9,-14.5l11.3,0c1.2,0 2.2,-1 2.2,-2.2l0,-12.9l19.8,-22.2l0.4,0.3zm-63.5,-71.2l1.4,0l0,2.3l-1.4,0l0,-2.3zm-6.6,-14.3l0,1.4l-2.3,0l0,-1.4l2.3,0zm20,0l0,1.4l-2.3,0l0,-1.4l2.3,0zm-2.3,4.6l0,-1.4l2.3,0l0,1.4l-2.3,0zm2.3,1.8l0,1.4l-2.3,0l0,-1.4l2.3,0zm-2.3,3.2l2.3,0l0,1.4l-2.3,0l0,-1.4zm-11.1,-15.2l1.4,0l0,2.3l-1.4,0l0,-2.3zm7.8,2.3l-1.4,0l0,-2.3l1.4,0l0,2.3zm-3.2,0l-1.4,0l0,-2.3l1.4,0l0,2.3zm-6.4,-2.3l0,2.3l-1.4,0l0,-2.3l1.4,0zm-4.8,12l0,1.4l-2.3,0l0,-1.4l2.3,0zm-2.3,-1.8l0,-1.4l2.3,0l0,1.4l-2.3,0zm0,5l2.3,0l0,1.4l-2.3,0l0,-1.4zm3.8,1.4l0,-10.9c0,-1 0.8,-1.8 1.8,-1.8l10.9,0c1,0 1.8,0.8 1.8,1.8l0,10.9c0,1 -0.8,1.8 -1.8,1.8l-10.9,0c-1,0 -1.8,-0.8 -1.8,-1.8zm9.7,5.6l-1.4,0l0,-2.3l1.4,0l0,2.3zm1.8,0l0,-2.3l1.4,0l0,2.3l-1.4,0zm-9.6,0l0,-2.3l1.4,0l0,2.3l-1.4,0zm3.2,68.1l1.4,0l0,2.3l-1.4,0l0,-2.3zm-8.9,-14.2l2.3,0l0,1.4l-2.3,0l0,-1.4zm7.1,-5.7l0,2.3l-1.4,0l0,-2.3l1.4,0zm15.2,5.7l0,1.4l-2.3,0l0,-1.4l2.3,0zm-2.3,4.5l0,-1.4l2.3,0l0,1.4l-2.3,0zm2.3,1.8l0,1.4l-2.3,0l0,-1.4l2.3,0zm-2.3,3.2l2.3,0l0,1.4l-2.3,0l0,-1.4zm-3.3,-15.2l0,2.3l-1.4,0l0,-2.3l1.4,0zm-3.2,2.3l-1.4,0l0,-2.3l1.4,0l0,2.3zm-3.2,-2.3l0,2.3l-1.4,0l0,-2.3l1.4,0zm-8,13.4l-2.3,0l0,-1.4l2.3,0l0,1.4zm0,-3.2l-2.3,0l0,-1.4l2.3,0l0,1.4zm-2.3,5l2.3,0l0,1.4l-2.3,0l0,-1.4zm3.8,1.4l0,-10.9c0,-1 0.8,-1.8 1.8,-1.8l10.9,0c1,0 1.8,0.8 1.8,1.8l0,10.9c0,1 -0.8,1.8 -1.8,1.8l-10.9,0c-1,0 -1.8,-0.8 -1.8,-1.8zm9.7,5.6l-1.4,0l0,-2.3l1.4,0l0,2.3zm1.8,0l0,-2.3l1.4,0l0,2.3l-1.4,0zm-9.6,0l0,-2.3l1.4,0l0,2.3l-1.4,0zm16.6,55.8l0,1.4l-2.3,0l0,-1.4l2.3,0zm-8.8,16.6l-1.4,0l0,-2.3l1.4,0l0,2.3zm-4.6,-2.3l1.4,0l0,2.3l-1.4,0l0,-2.3zm-6.6,-14.3l0,1.4l-2.3,0l0,-1.4l2.3,0zm4.8,-5.6l0,2.3l-1.4,0l0,-2.3l1.4,0zm12.9,10.2l0,-1.4l2.3,0l0,1.4l-2.3,0zm2.3,1.8l0,1.4l-2.3,0l0,-1.4l2.3,0zm-20,-3.2l0,1.4l-2.3,0l0,-1.4l2.3,0zm0,3.2l0,1.4l-2.3,0l0,-1.4l2.3,0zm1.5,4.6l0,-10.9c0,-1 0.8,-1.8 1.8,-1.8l10.9,0c1,0 1.8,0.8 1.8,1.8l0,10.9c0,1 -0.8,1.8 -1.8,1.8l-10.9,0c-1,0 -1.8,-0.8 -1.8,-1.8zm12.9,-16.6l0,2.3l-1.4,0l0,-2.3l1.4,0zm-3.2,2.2l-1.4,0l0,-2.3l1.4,0l0,2.3zm-3.2,-2.2l0,2.3l-1.4,0l0,-2.3l1.4,0zm-10.3,15.2l2.3,0l0,1.4l-2.3,0l0,-1.4zm20,0l2.3,0l0,1.4l-2.3,0l0,-1.4zm-14.3,7l0,-2.3l1.4,0l0,2.3l-1.4,0zm9.6,0l0,-2.3l1.4,0l0,2.3l-1.4,0z" id="svg_125"/>
   <path class="st2" d="m185.4,260.8l10.9,0c1,0 1.8,0.8 1.8,1.8l0,10.9c0,1 -0.8,1.8 -1.8,1.8l-10.9,0c-1,0 -1.8,-0.8 -1.8,-1.8l0,-10.9c0,-1 0.8,-1.8 1.8,-1.8z" id="svg_126"/>
   <rect class="st2" height="2.3" id="svg_127" width="1.4" x="191.9" y="257"/>
   <rect class="st2" height="2.3" id="svg_128" width="1.4" x="185.5" y="257"/>
   <rect class="st2" height="2.3" id="svg_129" width="1.4" x="195.1" y="257"/>
   <rect class="st2" height="2.3" id="svg_130" width="1.4" x="188.7" y="257"/>
   <rect class="st2" height="2.3" id="svg_131" width="1.4" x="185.5" y="276.9"/>
   <rect class="st2" height="2.3" id="svg_132" width="1.4" x="188.7" y="276.9"/>
   <rect class="st2" height="2.3" id="svg_133" width="1.4" x="195.1" y="276.9"/>
   <rect class="st2" height="2.3" id="svg_134" width="1.4" x="191.9" y="276.9"/>
   <rect class="st2" height="1.4" id="svg_135" width="2.3" x="179.8" y="269"/>
   <rect class="st2" height="1.4" id="svg_136" width="2.3" x="179.8" y="272.2"/>
   <rect class="st2" height="1.4" id="svg_137" width="2.3" x="179.8" y="265.8"/>
   <rect class="st2" height="1.4" id="svg_138" width="2.3" x="179.8" y="262.6"/>
   <rect class="st2" height="1.4" id="svg_139" width="2.3" x="199.8" y="265.8"/>
   <rect class="st2" height="1.4" id="svg_140" width="2.3" x="199.8" y="262.6"/>
   <rect class="st2" height="1.4" id="svg_141" width="2.3" x="199.8" y="272.2"/>
   <rect class="st2" height="1.4" id="svg_142" width="2.3" x="199.8" y="269"/>
   <path class="st2" d="m185.4,188.5l10.9,0c1,0 1.8,0.8 1.8,1.8l0,10.9c0,1 -0.8,1.8 -1.8,1.8l-10.9,0c-1,0 -1.8,-0.8 -1.8,-1.8l0,-10.9c0,-1 0.8,-1.8 1.8,-1.8z" id="svg_143"/>
   <rect class="st2" height="2.3" id="svg_144" width="1.4" x="191.9" y="184.6"/>
   <rect class="st2" height="2.3" id="svg_145" width="1.4" x="185.5" y="184.6"/>
   <rect class="st2" height="2.3" id="svg_146" width="1.4" x="195.1" y="184.6"/>
   <rect class="st2" height="2.3" id="svg_147" width="1.4" x="188.7" y="184.6"/>
   <rect class="st2" height="2.3" id="svg_148" width="1.4" x="185.5" y="204.5"/>
   <rect class="st2" height="2.3" id="svg_149" width="1.4" x="188.7" y="204.5"/>
   <rect class="st2" height="2.3" id="svg_150" width="1.4" x="195.1" y="204.5"/>
   <rect class="st2" height="2.3" id="svg_151" width="1.4" x="191.9" y="204.5"/>
   <rect class="st2" height="1.4" id="svg_152" width="2.3" x="179.8" y="196.6"/>
   <rect class="st2" height="1.4" id="svg_153" width="2.3" x="179.8" y="199.8"/>
   <rect class="st2" height="1.4" id="svg_154" width="2.3" x="179.8" y="193.4"/>
   <rect class="st2" height="1.4" id="svg_155" width="2.3" x="179.8" y="190.3"/>
   <rect class="st2" height="1.4" id="svg_156" width="2.3" x="199.8" y="193.4"/>
   <rect class="st2" height="1.4" id="svg_157" width="2.3" x="199.8" y="190.3"/>
   <rect class="st2" height="1.4" id="svg_158" width="2.3" x="199.8" y="199.8"/>
   <rect class="st2" height="1.4" id="svg_159" width="2.3" x="199.8" y="196.6"/>
   <path class="st2" d="m185.4,118.1l10.9,0c1,0 1.8,0.8 1.8,1.8l0,10.9c0,1 -0.8,1.8 -1.8,1.8l-10.9,0c-1,0 -1.8,-0.8 -1.8,-1.8l0,-10.9c0,-1 0.8,-1.8 1.8,-1.8z" id="svg_160"/>
   <rect class="st2" height="2.3" id="svg_161" width="1.4" x="191.9" y="114.2"/>
   <rect class="st2" height="2.3" id="svg_162" width="1.4" x="185.5" y="114.2"/>
   <rect class="st2" height="2.3" id="svg_163" width="1.4" x="195.1" y="114.2"/>
   <rect class="st2" height="2.3" id="svg_164" width="1.4" x="188.7" y="114.2"/>
   <rect class="st2" height="2.3" id="svg_165" width="1.4" x="185.5" y="134.1"/>
   <rect class="st2" height="2.3" id="svg_166" width="1.4" x="188.7" y="134.1"/>
   <rect class="st2" height="2.3" id="svg_167" width="1.4" x="195.1" y="134.1"/>
   <rect class="st2" height="2.3" id="svg_168" width="1.4" x="191.9" y="134.1"/>
   <rect class="st2" height="1.4" id="svg_169" width="2.3" x="179.8" y="126.2"/>
   <rect class="st2" height="1.4" id="svg_170" width="2.3" x="179.8" y="129.4"/>
   <rect class="st2" height="1.4" id="svg_171" width="2.3" x="179.8" y="123"/>
   <rect class="st2" height="1.4" id="svg_172" width="2.3" x="179.8" y="119.8"/>
   <rect class="st2" height="1.4" id="svg_173" width="2.3" x="199.8" y="123"/>
   <rect class="st2" height="1.4" id="svg_174" width="2.3" x="199.8" y="119.8"/>
   <rect class="st2" height="1.4" id="svg_175" width="2.3" x="199.8" y="129.4"/>
   <rect class="st2" height="1.4" id="svg_176" width="2.3" x="199.8" y="126.2"/>
  </g>
 </g>
</svg>