<?xml version="1.0" encoding="UTF-8"?>
<svg id="Layer_1" xmlns="http://www.w3.org/2000/svg" version="1.1" viewBox="0 0 841.9 595.3">
  <!-- Generator: Adobe Illustrator 29.0.0, SVG Export Plug-In . SVG Version: 2.1.0 Build 186)  -->
  <defs>
    <style>
      .st0 {
        fill: #a9d18e;
      }

      .st1 {
        fill: #9dc3e6;
      }

      .st2 {
        fill: #fff;
      }
    </style>
  </defs>
  <path class="st1" d="M81.7,407.3h-35.2v-15.9h91.5v15.9h-36.4v86.3h-19.8v-86.3Z"/>
  <path class="st0" d="M492.8,407.3h-35.2v-15.9h91.5v15.9h-36.4v86.3h-19.8v-86.3Z"/>
  <path class="st1" d="M145.5,493.5c-11.1,0-19.5-2.8-25.1-8.5-5.7-5.6-8.5-14-8.5-25s2.9-19.3,8.6-25c5.7-5.7,14.1-8.5,25.1-8.5h25.8v14h-23.4c-6.4,0-10.7.9-12.9,2.7-2.2,1.8-3.4,5.1-3.6,9.9h39.9v14h-39.9c.2,4.8,1.3,8.1,3.3,9.8,2,1.8,6.4,2.6,13,2.6h23.5v14h-25.8Z"/>
  <path class="st1" d="M219,479.2h18.8v14.3h-24c-6.1,0-11.1-.6-15-1.9-3.9-1.3-7.3-3.3-10.2-6.1-3.1-3.1-5.5-6.8-7.3-11.2-1.8-4.4-2.6-9.1-2.6-14s.9-10,2.6-14.5c1.7-4.5,4.2-8.2,7.3-11.3,2.9-2.8,6.4-4.8,10.3-6.1,3.9-1.3,8.9-1.9,14.8-1.9h24v14.4h-18.8c-8.3,0-14,1.4-17.2,4.3-3.1,2.9-4.7,7.9-4.7,15s.6,7.5,1.9,10.2c1.3,2.7,3.3,4.9,6,6.5,1.3.8,2.9,1.3,4.6,1.7,1.8.3,4.9.5,9.4.5Z"/>
  <path class="st1" d="M249.4,402.4h17.5v24.2h15.7c9.8,0,17,1.9,21.4,5.8,4.4,3.9,6.6,10.1,6.6,18.7v42.4h-17.8v-40.4c0-4.6-.8-7.7-2.5-9.4-1.7-1.7-4.8-2.5-9.3-2.5h-14.1v52.2h-17.5v-91.1Z"/>
  <path class="st1" d="M325.9,426.6h33.2c10,0,17.2,1.9,21.5,5.7,4.3,3.8,6.5,10.1,6.5,18.8v42.4h-17.7v-40.2c0-5-.8-8.2-2.3-9.7-1.5-1.5-4.7-2.2-9.3-2.2h-14.2v52.2h-17.7v-66.9Z"/>
  <path class="st1" d="M431.9,493.5c-11.1,0-19.5-2.8-25.1-8.5-5.7-5.6-8.5-14-8.5-25s2.9-19.3,8.6-25c5.7-5.7,14.1-8.5,25.1-8.5h25.8v14h-23.4c-6.4,0-10.7.9-12.9,2.7-2.2,1.8-3.4,5.1-3.6,9.9h39.9v14h-39.9c.2,4.8,1.3,8.1,3.3,9.8,2,1.8,6.4,2.6,13,2.6h23.5v14h-25.8Z"/>
  <path class="st0" d="M559,493.5c-11.1,0-19.5-2.8-25.1-8.5-5.7-5.6-8.5-14-8.5-25s2.9-19.3,8.6-25c5.7-5.7,14.1-8.5,25.1-8.5h25.8v14h-23.4c-6.4,0-10.7.9-12.9,2.7-2.2,1.8-3.4,5.1-3.6,9.9h39.9v14h-39.9c.2,4.8,1.3,8.1,3.3,9.8,2,1.8,6.4,2.6,13,2.6h23.5v14h-25.8Z"/>
  <path class="st0" d="M596,426.6h29.7c6.9,0,11.8,1.2,14.6,3.8,2.8,2.5,4.2,6.9,4.2,13.1v11.2h-16.9v-8.6c0-2.6-.5-4.3-1.4-5.2s-3-1.3-6.4-1.3h-6.2v54.1h-17.7v-66.9Z"/>
  <path class="st0" d="M652.6,426.6h29.7c6.9,0,11.8,1.2,14.6,3.8,2.8,2.5,4.2,6.9,4.2,13.1v11.2h-16.9v-8.6c0-2.6-.5-4.3-1.4-5.2-.9-.9-3-1.3-6.4-1.3h-6.2v54.1h-17.7v-66.9Z"/>
  <path class="st0" d="M710,426.6h36.2c9.1,0,16,2.1,20.6,6.3,4.6,4.2,6.9,10.4,6.9,18.7v41.9h-47.5c-6.7,0-11.8-1.7-15.3-5-3.6-3.3-5.4-8.1-5.4-14.3s2.1-13.1,6.2-16.4c4.1-3.3,10.9-5,20.5-5h23.3v-1.7c0-4-1.2-6.8-3.5-8.4-2.3-1.6-6.5-2.4-12.5-2.4h-29.5v-13.8ZM733.5,480.1h22.1v-13.8h-20.8c-4.1,0-7,.6-8.6,1.7-1.6,1.1-2.4,3.1-2.4,5.8s.6,4,1.9,4.9c1.3.9,3.8,1.4,7.7,1.4Z"/>
  <g>
    <path class="st1" d="M89.5,528.2v6.5h-19.3v10.3h18.3v6.8h-18.4v10.7h19.7v6.6h-27.2v-40.8h26.8Z"/>
    <path class="st1" d="M153.2,528.2l-17.9,40.8h-8.1l-17.1-40.8h9l12.6,31.2,12.6-31.2h8.9Z"/>
    <path class="st1" d="M172.4,548.7c0-13.8,6.8-20.7,20.5-20.7s20.1,6.9,20.1,20.7-6.7,20.6-20.1,20.6-19.9-6.9-20.5-20.6ZM192.9,562.7c8.2,0,12.3-4.7,12.3-14.2s-4.1-14-12.3-14-12.6,4.7-12.6,14,4.2,14.2,12.6,14.2Z"/>
    <path class="st1" d="M244,528.2v34.2h19v6.6h-26.6v-40.8h7.6Z"/>
    <path class="st1" d="M316.8,528.2l-17.9,40.8h-8.1l-17.1-40.8h9l12.6,31.2,12.6-31.2h8.9Z"/>
    <path class="st1" d="M345,528.2v40.8h-7.6v-40.8h7.6Z"/>
    <path class="st1" d="M369.9,569v-40.8h7.6l22.7,29.1v-29.1h7.3v40.8h-7.6l-22.7-29.8v29.8h-7.3Z"/>
    <path class="st1" d="M464.7,567.1c-3.3,1.4-7.4,2.2-12.3,2.2-14.4,0-21.6-7.1-21.6-21.2s7.3-20.1,21.9-20.1,8.5.7,12,2v6.8c-3.5-1.5-7.3-2.3-11.4-2.3-9.8,0-14.7,4.5-14.7,13.5s4.6,14.7,13.8,14.7,2.9-.2,4.7-.7v-11.9h7.6v16.9Z"/>
    <path class="st1" d="M541.1,528.2v6.6h-11.7v34.2h-7.5v-34.2h-11.7v-6.6h30.9Z"/>
    <path class="st1" d="M560.3,548.7c0-13.8,6.8-20.7,20.5-20.7s20.1,6.9,20.1,20.7-6.7,20.6-20.1,20.6-19.9-6.9-20.5-20.6ZM580.8,562.7c8.2,0,12.3-4.7,12.3-14.2s-4.1-14-12.3-14-12.6,4.7-12.6,14,4.2,14.2,12.6,14.2Z"/>
    <path class="st1" d="M624.4,569v-40.8h17.7c12.7,0,19.1,6.4,19.1,19.3s-6.4,21.5-19.1,21.5h-17.7ZM640.9,562.4c8.5,0,12.7-5,12.7-14.9s-4.2-12.7-12.7-12.7h-9v27.6h9Z"/>
    <path class="st1" d="M681.1,569l17.3-40.8h8.1l17.7,40.8h-8.1l-5.1-11.1h-13.1l2.6-6.6h8.5l-6.7-15.3-13.4,33h-7.8Z"/>
    <path class="st1" d="M736.9,528.2h8.1l11.5,19.6,10.8-19.6h7.8l-15,26.5v14.2h-7.6v-14.2l-15.6-26.5Z"/>
  </g>
  <g>
    <path class="st1" d="M425.3,334.9h0s-.1,0-.1,0c-1.3,0-2.5.6-3.4,1.5-.9.9-1.5,2.1-1.6,3.4v.2c0,2.7,2.2,5,4.9,5.1h.1c2.6,0,4.8-2.2,5-4.8h0s0-.2,0-.2c0-2.7-2.2-5-4.9-5.1Z"/>
    <path class="st1" d="M457,245.7h0s0,0,0,0c0,0,0,0,0,0h0c-3.7,0-6.5,3-6.5,6.8h0s0,0,0,0h0s0,0,0,0c0,3.4,2.7,6.3,6,6.4h0c3.6,0,6.6-3.2,6.6-7h0,0c0-3.6-2.6-6.3-6-6.3Z"/>
    <path class="st1" d="M450.4,112.2h0s0,0,0,0h0s0,0,0,0c0,3.8,2.8,6.8,6.5,6.8h.1c3.4,0,6-2.6,6-6.1h0c0-3.9-2.9-7.1-6.6-7.1v.8s0-.8,0-.8c-3.3,0-6,2.9-6.1,6.3Z"/>
    <path class="st1" d="M472.3,30.3h0s0,0,0,0c1.9,0,3.3-1.4,3.6-3.1,0-.4-.2-.8-.6-.9-2.7-.8-5.4-1.5-8.1-2.1l-.7.2-.2.7c.3,1.3,1.1,2.6,2.2,3.6,1,1,2.3,1.7,3.7,1.7Z"/>
    <path class="st1" d="M452.4,308.5h-.2c-3.2.2-5.9,3-5.9,6.2v.3s0,0,0,0c0,0,0,0,0,0h0s0,0,0,0c.2,2.8,2.3,4.9,5,4.9h.1s0-.8,0-.8v.8c1.6,0,3.1-.9,4.1-2,1.1-1.2,1.8-2.7,1.8-4.2v-.7c-.4-2.6-2.5-4.4-5-4.4Z"/>
    <path class="st1" d="M460.6,284.2h0c0-3.3-2.6-5.8-5.6-5.8-.7,0-1.4.1-2.1.4-2.4,1-4.1,3.6-4.2,6.1h0s0,.2,0,.2c0,3.3,2.7,5.9,5.7,5.9.5,0,1,0,1.5-.2,2.8-.9,4.8-3.6,4.8-6.6h-.8s.8,0,.8,0h0Z"/>
    <path class="st1" d="M451.4,45c-2.1,0-3.9,1.2-4.7,3.3-.3.6-.4,1.3-.4,2,0,3.1,2.5,6,5.8,6.2h.3c2.2,0,4.1-1.3,4.7-3.4.2-.5.3-1.1.3-1.6,0-3-2.3-5.9-5.3-6.3h-.7Z"/>
    <path class="st1" d="M458.6,175.4h-.2c-3.6,0-6.5,3-6.6,6.8v.2c0,3.7,2.8,6.9,6.4,7h.2c3.6,0,6.5-3,6.6-6.8v-.2c0-3.8-2.8-6.9-6.4-7Z"/>
    <path class="st1" d="M387.4,113h0c0,0,0,0,0,0,0,1.7.6,3.2,1.7,4.3,1.1,1.1,2.6,1.8,4.3,1.8h0c3.7,0,6.5-3,6.5-6.8h0s0,0,0,0h0c0-3.4-2.7-6.3-6-6.3-3.6,0-6.6,3.2-6.6,7h0c0,0,0,0,0,0,0,0,0,0,0,0Z"/>
    <path class="st1" d="M398.6,182.4c0-3.8-2.9-7-6.6-7-3.7,0-6.6,3.2-6.6,7,0,3.8,2.9,7,6.6,7,3.7,0,6.6-3.2,6.6-7Z"/>
    <path class="st1" d="M401.3,30.1h.2c1.4,0,2.7-.9,3.7-1.9,1-1,1.7-2.4,1.7-3.8h0c0,0,0,0,0,0,0-1.7-.9-3.1-2.2-3.9h-.5c-1.5,0-3,.2-4.5.4h-.4c-1.2,1-2,2.3-2.3,3.8v.9c0,2.4,1.9,4.4,4.3,4.5Z"/>
    <path class="st1" d="M393.8,258.1v.8s0,0,0,0c3.3,0,6-2.9,6-6.3h0c0,0,0-.1,0-.1,0-3.8-2.9-6.8-6.6-6.7-1.7,0-3.2.7-4.3,1.8-1.1,1.1-1.7,2.7-1.7,4.5h0s0,0,0,0c0,3.7,2.9,6.8,6.5,6.9v-.8Z"/>
    <path class="st1" d="M431.2,80.1h0v-.2c-.1-3.3-2.9-6.1-6.1-6.2h-.2s0,0,0,0c0,0,0,0,0,0h0c-3.1.2-5.8,3.1-5.8,6.3h0c0,.1,0,.1,0,.1,0,0,0,0,0,0h0s0,0,0,0c.1,3.4,2.8,6.2,6.1,6.2h0s0-.8,0-.8v.8c3.2-.1,5.9-3,6-6.3Z"/>
    <path class="st1" d="M537.3,110.6c-.1.5-.1,1-.2,1.5h0c.2,3,1.4,5.7,4,7.3.8.5,1.6.8,2.4.8,1.1,0,2.2-.6,3-1.6.8-1,1.3-2.1,1.3-3.4,0-2.9-1.1-5.5-3.5-7.3-.9-.7-2-1.1-3-1.1-2,0-3.6,1.5-4.1,3.8Z"/>
    <path class="st1" d="M545.1,245.2c-.5-.3-1.1-.4-1.6-.4-.5,0-.9,0-1.3.3-3,1.3-5,4.5-5,7.7,0,.5,0,1.1.2,1.6.5,2.2,2.1,3.7,4.1,3.7,1,0,1.9-.3,2.9-1l-.5-.6.5.6c2.4-1.7,3.4-4.3,3.6-6.9h0c-.1-2.1-.9-4-2.8-5Z"/>
    <path class="st1" d="M538.4,277.9c-.6-.4-1.4-.6-2-.6-.9,0-1.8.3-2.6.8-2.6,1.7-4.1,4.3-4.1,7.4h0s0,0,0,0h0s0,0,0,0c0,0,0,.1,0,.2h0c0,0,0,0,0,0,0,1.1.4,2,1,2.7.7.7,1.6,1.1,2.6,1.1.6,0,1.3-.2,2-.5l-.3-.7.3.7c3-1.4,4.4-4.1,4.8-6.8h0c0-1,0-1.8-.3-2.6-.2-.8-.7-1.5-1.5-1.9Z"/>
    <path class="st1" d="M542.7,142.7c-.8,1.2-1.1,2.6-1.1,4,0,2.8,1.3,5.6,3.8,7h0c.7.4,1.4.6,2.1.6,1,0,1.9-.4,2.7-1,1.6-1.3,2.3-3.1,2.3-5.6h0c-.1-2-.9-4.6-3.4-6.3-.8-.5-1.7-.8-2.6-.8-1.5,0-2.9.8-3.8,2.1Z"/>
    <path class="st1" d="M517.1,153.1c1,.7,2.1,1.1,3.2,1.1,1.7,0,3.2-.9,4.2-2.5.8-1.2,1.1-2.6,1.2-4h0c-.2-2.7-1.2-5.2-3.8-6.6-.9-.5-1.8-.7-2.7-.7-1.9,0-3.7,1.1-4.6,3-.6,1.1-.8,2.3-.8,3.5,0,2.4,1.2,4.8,3.3,6.3Z"/>
    <path class="st1" d="M510.9,109.5c-.4.8-.5,1.7-.5,2.6,0,3,1.8,5.9,4.6,7.1.6.3,1.3.4,1.9.4,2.1,0,4-1.3,4.7-3.4.3-.8.3-1.5.3-2.2,0-3.3-2.1-6.4-5-7.3h0s0,0,0,0c-.5-.2-1-.2-1.6-.2-1.9,0-3.6,1.2-4.4,3Z"/>
    <path class="st1" d="M519.6,50s0,0,0,0h0c0,0,0,0,0,0,0,1.6.8,3.2,1.9,4.6,1.1,1.4,2.6,2.5,4.1,2.9h.9c.8.1,1.6-.3,2.2-.9.7-.7,1-1.6,1-2.4,0-.4,0-.7-.1-1.1h0c0,0-.2-.8-.2-.8l-.3-.4c-2.4-1.7-4.9-3.4-7.4-5h-.9c-.7.7-1.2,1.6-1.2,2.6v.3s0,0,0,0Z"/>
    <path class="st1" d="M320.6,54.4s0,0,0,0h0s0,0,0,0c0,1.9,1.5,3.3,3.2,3.3h1c0-.1-.2-.9-.2-.9l.2.8c1.5-.5,2.9-1.6,4-3,1.1-1.4,1.8-3,1.9-4.6h0s0-.2,0-.2c0-1.3-.6-2.5-1.6-3.1h-.8c-2.3,1.5-4.6,3-6.8,4.5l-.3.3c-.4.8-.6,1.7-.6,2.6v.2s0,0,0,0Z"/>
    <path class="st1" d="M529.7,79.4c0,2.9,1.9,6.2,4.5,7.5.8.4,1.6.6,2.3.6,1,0,2-.4,2.7-1.2.7-.8,1-1.8,1-3h0c0-3.3-2.2-6.7-5.1-7.8h0s0,0,0,0c-.6-.2-1.1-.3-1.7-.3-.9,0-1.8.3-2.5,1-.6.6-1,1.5-1.2,2.6v.7Z"/>
    <path class="st1" d="M559.7,277.1c-.5-.3-1-.4-1.5-.4-.9,0-1.7.4-2.3.8-2.7,1.9-4,4.6-4.2,7.4h0c0,1.2.3,2.2.8,2.9.5.7,1.4,1.2,2.2,1.1.7,0,1.4-.2,2.2-.7h0s.2-.2.2-.2h.2c1-1.2,1.9-2.3,2.8-3.4h0c.6-1.3,1.1-2.6,1.2-4h-.8c0,0,.8,0,.8,0v-.6c0-1.1-.4-2.4-1.6-3.1Z"/>
    <path class="st1" d="M403.3,335.4c-.7-.4-1.3-.5-2-.5-.9,0-1.8.4-2.5.9-1.2.8-1.9,2.1-1.9,3.5v.9c0,0,0,0,0,0,0,0,0,0,0,0h0s0,0,0,0c.3,1.4,1,2.7,2.2,3.6h0s0,0,0,0c0,0,0,0,0,0h0c.4.3.8.6,1.3.8h.2c.8.2,1.6.3,2.5.4h.3s.9-.3.9-.3h.1c1.7-.8,2.4-2.4,2.4-3.9h0c0-2.4-1.4-4.1-3.6-5.3Z"/>
    <path class="st1" d="M496.1,217.8c0-3.1-1.6-5.7-4.2-6.6-.6-.2-1.2-.3-1.9-.3-1.8,0-3.6.8-4.8,2.4-1.1,1.4-1.7,3-1.7,4.7,0,.9.2,1.8.6,2.8,1,2.5,3.1,3.9,5.5,3.9,1.2,0,2.4-.4,3.5-1.1,2.2-1.4,2.9-3.7,3.2-5.6h0Z"/>
    <path class="st1" d="M444.1,26.6s0,0,0,0c0,0,0,0,0,0h0c.7,1.5,2,2.1,2.9,2.8.6.4,1.3.6,1.9.6,2.3,0,4.5-2.1,4.5-4.8v-.3s0,0,0,0c-.2-1.3-.9-2.6-2.2-3.7l-.4-.2c-1.6-.2-3.2-.4-4.8-.6h-.5c0,.1-.5.5-.5.5h0c-1,.9-1.4,2.2-1.4,3.4,0,.8.2,1.6.5,2.3h0Z"/>
    <path class="st1" d="M504.8,78.7v.7c0,2.8,1.7,5.7,4.2,7,.8.4,1.7.6,2.5.6,1.2,0,2.4-.5,3.2-1.4.8-.8,1.2-2,1.2-3.3h0s0-.2,0-.2h0,0c0-3.1-2.4-6.3-5.3-7.2l-.2.8.2-.8c-.5-.2-1-.2-1.6-.2-2.2,0-4,1.7-4.3,4.1Z"/>
    <path class="st1" d="M526.5,307.1c-.4,0-.7,0-1.1.2h0s0,0,0,0h0c-1.5.5-2.9,1.6-3.9,2.9-1,1.3-1.8,2.9-1.9,4.5v.3c0,1.3.6,2.5,1.5,3.1h.9c2.3-1.5,4.6-3.1,6.9-4.7l.3-.3c.3-.8.6-1.6.6-2.4v-.5c-.2-1.7-1.6-3-3.2-3Z"/>
    <path class="st1" d="M472.4,50c0,1.5.7,3,1.7,4.2,1,1.2,2.3,2.1,3.8,2.4h1c1.2,0,2.3-.4,3.1-1.2.8-.8,1.2-2,1.2-3.3h0,0c0-2.8-2-5.6-4.7-6.5h0c-.6-.2-1.2-.3-1.7-.3-1.2,0-2.4.5-3.2,1.3-.8.8-1.3,2-1.3,3.4Z"/>
    <path class="st1" d="M480.9,74.5h0c-2.1.9-3.4,2.7-3.4,5v.9c.3,2,1.4,3.6,2.8,4.8,1.1,1,2.5,1.5,3.9,1.5.7,0,1.5-.2,2.1-.5,1.9-1,2.8-2.9,2.8-4.5h0c0-2.1-.8-4.1-1.9-5.3-1.3-1.4-3.1-2.2-4.8-2.2-.5,0-1,0-1.5.3Z"/>
    <path class="st1" d="M482,309.5c-.8-.8-1.9-1.3-3.1-1.3-.5,0-.9,0-1.4.2-1.3.4-2.5,1.2-3.4,2.4-.9,1.1-1.6,2.5-1.6,3.8v.4c0,1.3.5,2.5,1.3,3.3.8.8,1.9,1.3,3.2,1.3.5,0,1.1,0,1.7-.3l-.2-.8.2.8c2.6-.9,4.6-3.7,4.7-6.5h0c0-1.4-.4-2.5-1.2-3.4Z"/>
    <path class="st1" d="M488.4,140.3s0,0,0,0h0c-2.9.6-4.9,3.3-4.9,6.7h0c0,1.4.4,3.1,1.6,4.4,1.6,1.7,3.2,2.7,5,2.8,1.7,0,3.3-.9,4.7-2.6,1-1.2,1.4-2.5,1.4-3.9,0-1.1-.3-2.2-.7-3.3-1.1-2.5-3.4-4.1-5.9-4.1-.4,0-.8,0-1.2.1h0s0,0,0,0Z"/>
    <path class="st1" d="M490.4,246.1c-.9-.4-1.7-.6-2.6-.6-1.3,0-2.5.5-3.6,1.3-2,1.4-3,3.6-3,5.9v.2s0,0,0,0h0s0,0,0,0c0,3.4,2.5,5.9,5.5,5.8,1,0,2.1-.3,3.2-.9,2.4-1.4,3.3-3.7,3.6-6h0c0-1.3-.2-2.4-.7-3.3-.5-1-1.2-1.8-2.3-2.4Z"/>
    <path class="st1" d="M503.6,57h.1c1.1,0,2.1-.3,2.8-1.1.7-.7,1-1.7,1-2.8h0s0,0,0,0h0c0-1.6-.7-3.1-1.7-4.4-1-1.3-2.3-2.4-3.7-2.8h0s0,0,0,0c-.5-.1-.9-.2-1.3-.2-1.8,0-3.3,1.2-3.7,3.1v1c0,1.7.7,3.5,1.9,4.8,1.2,1.3,2.8,2.3,4.6,2.4Z"/>
    <path class="st1" d="M487.7,279.7c-.9-1-2.2-1.5-3.6-1.5h-.6c-3.5.4-5.9,3.9-6,7.2,0,.9.2,1.7.6,2.5.9,1.7,2.6,2.9,4.5,2.9h1c0-.1-.2-.9-.2-.9l.2.8c3.1-.8,5.5-3.8,5.6-7h0s0,0,0,0c0,0,0,0,0,0h0s0,0,0,0c0-1.5-.5-2.9-1.4-3.8Z"/>
    <path class="st1" d="M511.5,277.8c-.8,0-1.7.2-2.6.7-2.4,1.3-4.1,4.2-4.1,7v.6s0,0,0,0c0,0,0,0,0,0h0s0,0,0,0c.2,2.4,2,4.2,4.3,4.2.5,0,.9,0,1.4-.2l-.2-.8.2.8c2.9-.9,5.3-4,5.4-7.1v-.2c0-1.4-.5-2.7-1.3-3.5-.8-.9-1.9-1.4-3.2-1.4Z"/>
    <path class="st1" d="M502.1,307.8c-.7,0-1.4.2-2,.4-2.9,1.2-4.3,3.7-4.7,6.3h0c0,0,0,.4,0,.4,0,1.2.4,2.3,1.1,3.1.7.8,1.7,1.2,2.7,1.2.7,0,1.3-.2,2-.5l-.4-.7.4.7c2.2-1.1,3.9-2.9,4.5-5.5.1-.5.2-1,.2-1.5,0-1-.4-2.1-1.3-2.9-.8-.6-1.6-.9-2.5-.9Z"/>
    <path class="st1" d="M521.9,251h0s0,0,0,0h0s0-.3,0-.3c0-1.6-.6-3-1.5-3.9-.9-.9-2.2-1.4-3.5-1.4-.8,0-1.7.2-2.5.6-2.5,1.3-4,4.1-4,6.9,0,.9.1,1.7.5,2.6.8,1.9,2.5,3.1,4.4,3.1.5,0,1,0,1.5-.2,2.9-.9,5-4,5.1-7.3Z"/>
    <path class="st1" d="M524.5,176.8c-1-.9-2.3-1.4-3.5-1.4-1.3,0-2.7.5-3.6,1.5-1.5,1.5-2.3,3.4-2.3,5.5h0s0,0,0,0c0,2.2.9,4,2.3,5.5,1,1,2.3,1.4,3.6,1.4,1.3,0,2.6-.5,3.6-1.4,1.6-1.5,2.4-3.6,2.4-5.6s-.8-4.1-2.5-5.6Z"/>
    <path class="st1" d="M520.3,210.8c-.9,0-1.9.3-2.8.8-2.4,1.4-3.4,3.8-3.6,6.4h0s0,.2,0,.2c0,1.2.3,2.3.8,3.3.9,2,2.7,3.1,4.7,3.1,1,0,2-.3,2.9-.8,2.3-1.4,3.5-4,3.5-6.6,0-1.4-.4-2.8-1.1-3.9l-.7.4.7-.4c-1-1.5-2.6-2.4-4.3-2.4Z"/>
    <path class="st1" d="M338.9,87.1c.9,0,1.8-.3,2.7-.8l-.4-.7.4.7c2.6-1.5,3.8-3.9,4-6.4h0c0-1.6-.4-2.9-1.2-3.8-.8-.9-1.9-1.4-3.2-1.4-.7,0-1.4.1-2.1.4-2.6,1.1-4.6,4.1-4.7,6.9h0s0,0,0,0h0s0,0,0,0c0,1.4.4,2.7,1.2,3.6.8.9,1.9,1.4,3.2,1.4Z"/>
    <path class="st1" d="M277.6,189.3c1.2,0,2.3-.6,3.1-1.6,1.2-1.5,1.7-3.4,1.7-5.3,0-1.9-.6-3.8-1.7-5.3-.8-1-1.9-1.6-3.1-1.6-1.2,0-2.3.6-3.1,1.7-1.1,1.4-1.7,3.1-1.7,4.9v.3s0,.2,0,.2c0,1.8.6,3.5,1.7,4.9.8,1.1,2,1.8,3.2,1.8Z"/>
    <path class="st1" d="M260.2,187.6l-.7-.4.7.4c.9-1.4,1.3-2.9,1.3-4.4v-.5s0,0,0,0h0s0,0,0,0h0c0-2.5-.4-4.1-1.4-5.5-.7-.9-1.6-1.6-2.6-1.6-1,0-1.9.6-2.6,1.5-1.1,1.5-1.5,3.4-1.6,5.3,0,1.9.5,3.8,1.5,5.3.7,1,1.6,1.6,2.6,1.6,1.1,0,2-.7,2.7-1.7Z"/>
    <path class="st1" d="M294.3,277.4c-.6-.4-1.3-.7-2.1-.7-.5,0-1,.1-1.5.4-1.2.7-1.7,1.9-1.7,3v.4s0,0,0,0c0,0,0,0,0,0h0s0,0,0,0c.3,3.1,1.7,5.7,4.2,7.6.6.5,1.4.9,2.3.9.5,0,1-.1,1.5-.4.7-.4,1.2-1,1.4-1.7.2-.6.2-1.3.3-1.9h0c-.3-3-1.6-5.8-4.4-7.6Z"/>
    <path class="st1" d="M449.1,334.8h-.1s0,0,0,0c0,0,0,0,0,0h0c-1.4,0-2.8.8-3.7,1.9-1,1.1-1.7,2.4-1.7,3.9h0c0,.1,0,.1,0,.1,0,0,0,0,0,0h0c0,0,0,0,0,0,0,1.9,1.3,3.5,3,4.1h.3c1,0,2-.2,3-.3h.3c1.8-1.1,3.3-3,3.3-5.2h0c0-1.3-.6-2.4-1.4-3.2-.8-.8-1.9-1.4-3-1.4Z"/>
    <path class="st1" d="M373.9,333.1h0s0,0,0,0h0c-1.1,0-2,.4-2.7,1.1-.7.7-1.1,1.7-1.1,2.8v.2s0,0,0,0h0s.6.6.6.6c2.7.8,5.5,1.5,8.3,2.1l.7-.2.3-.7c0-1.5-.9-3-2-4.1-1.1-1.1-2.5-1.9-4-2Z"/>
    <path class="st1" d="M330.7,314.8h0s0,0,0,0c-.1-2.7-2.1-5.6-4.8-7.1-.6-.3-1.3-.7-2.2-.7-.6,0-1.3.2-1.8.7-.9.7-1.4,1.8-1.4,2.8,0,.4,0,.9.2,1.3.2.8.5,1.6.9,2.3l.2.3c1.9,1.3,3.8,2.6,5.8,3.9h.6c1.3-.3,2.4-1.5,2.4-3.1v-.3s0,0,0,0Z"/>
    <path class="st1" d="M283.8,120.6c.8,0,1.7-.3,2.4-1,2.4-1.9,3.4-4.6,3.7-7.5v-.2c0-.3,0-.7-.2-1.2l-.8.2.8-.2c-.2-.6-.4-1.3-.8-1.9-.4-.6-1.1-1.2-2-1.4h-.8c-1.4,0-2.5.7-3.3,1.7-.7.9-1.5,1.8-1.9,3.1-.4,1.1-.8,2.3-.8,3.7,0,.8.2,1.6.6,2.5.6,1.4,1.8,2.3,3.1,2.3Z"/>
    <path class="st1" d="M288.7,254.6l.7.3c.2-.6.4-1.2.4-1.9v-.4s0,0,0,0c-.2-2.6-1.1-5.1-3.3-7-.9-.8-1.9-1.3-2.9-1.3-1.5,0-2.7,1.1-3.3,2.8-.2.7-.3,1.3-.4,1.6v.2c.2,3,1.2,5.5,3.3,7.4.8.8,1.8,1.2,2.7,1.2,1.5,0,2.8-1.1,3.4-2.7l-.7-.3Z"/>
    <path class="st1" d="M283.6,221.4l-.7-.3.7.3c.5-1,.7-2.2.7-3.3,0-2.7-1.2-5.5-3.4-7-.6-.5-1.3-.7-2.1-.7-.9,0-1.7.4-2.3,1.1-1.3,1.2-1.8,2.9-1.8,4.5v.4s0,.3,0,.3c0,2.2.8,4.2,2.2,5.8.9,1,2,1.6,3.1,1.6,1.5,0,2.8-1,3.6-2.6Z"/>
    <path class="st1" d="M276.3,153.3c.7.8,1.6,1.2,2.6,1.2.8,0,1.5-.3,2.2-.8l-.5-.6.5.6c2.1-1.6,3.2-4.4,3.2-7,0-1.1-.2-2.1-.6-3.1-.7-1.7-2.1-2.8-3.6-2.8-1.3,0-2.5.7-3.4,1.9-1.2,1.5-1.9,3.4-1.9,5.4v.2s0,.6,0,.6c0,1.5.4,3.1,1.6,4.3Z"/>
    <path class="st1" d="M475.9,333.3h0s0,0,0,0h0s0,0,0,0h0c-1.5,0-2.9.8-4,1.8-1.1,1.1-1.9,2.5-2.1,4l.3.7.7.2c2.8-.7,5.5-1.4,8.2-2.2.4-.1.6-.4.6-.8,0-2-1.6-3.7-3.6-3.7Z"/>
    <path class="st1" d="M261.1,211.1c-.6-.6-1.4-1-2.2-1-1,0-1.9.6-2.5,1.6-.7,1.1-1,2.5-1,4,0,2.7,1,5.7,2.9,7.2.6.5,1.3.8,2,.8,1,0,1.9-.7,2.5-1.6l-.7-.4.7.4c.7-1.2.9-2.5,1-3.9h0c-.2-2.4-.7-5-2.6-7Z"/>
    <path class="st1" d="M258.9,154.8c1,0,1.9-.6,2.6-1.4,1.7-2,2.1-4.4,2.2-6.6h0c0-1.3-.3-2.5-.8-3.6l-.7.4.7-.4c-.6-1.2-1.5-2-2.7-1.9-.9,0-1.7.4-2.4,1.2-1.6,1.6-2.4,4.3-2.4,6.8,0,1.3.2,2.5.7,3.5.6,1.2,1.6,2,2.7,2.1Z"/>
    <path class="st1" d="M575.3,177.7l.6-.5c-.8-1.1-2-1.7-3.2-1.7-1.2,0-2.3.6-3.1,1.7-1.2,1.5-1.7,3.3-1.7,5.1v.2s0,0,0,0h0s0,0,0,0c0,2,.6,3.8,1.7,5.2.8,1,1.9,1.6,3.1,1.6,1.2,0,2.3-.6,3.2-1.8,1.1-1.5,1.7-3.3,1.7-5.2,0-1.8-.6-3.7-1.7-5.2l-.6.5Z"/>
    <path class="st1" d="M574.1,211.6c-.7-.8-1.6-1.3-2.5-1.3-.8,0-1.5.3-2.2.8-2.1,1.6-3.3,4.3-3.3,6.9,0,1,.2,2.1.6,3.1.7,1.8,2.1,2.8,3.7,2.8,1.2,0,2.4-.7,3.4-1.9l-.6-.5.6.5c1.2-1.6,2-3.4,2-5.5v-.3s0-.4,0-.4c0-1.5-.4-3.1-1.6-4.3Z"/>
    <path class="st1" d="M593.3,212.2l.7-.4c-.6-1.1-1.5-1.8-2.6-1.8-.9,0-1.7.5-2.3,1.3-1.6,1.9-2.5,4.1-2.5,6.4,0,1.1.2,2.2.5,3.3.2.5.4,1.1.9,1.6.4.5,1.1.8,1.8.9h.3c1.3,0,2.2-.8,2.8-1.6v-.3c.8-2.5,1.4-5,1.9-7.5v-.3c-.1-.7-.4-1.4-.7-2l-.7.4Z"/>
    <path class="st1" d="M397.6,290.8l-.2-.8.2.8c2.4-.7,4.1-3.2,4.2-5.7h0s0,0,0,0c0-2.6-1.8-5.3-4.2-6.3-.7-.3-1.5-.5-2.2-.5-1.4,0-2.8.6-3.8,1.8-1.1,1.2-1.6,2.7-1.6,4.2,0,1.3.4,2.6,1.2,3.7,1.3,1.8,3.3,3,5.4,3,.4,0,.9,0,1.3-.2Z"/>
    <path class="st1" d="M556.2,87.5l.4-.7-.4.7c.7.4,1.4.6,2.1.6.9,0,1.7-.3,2.2-1,.6-.6.8-1.5.8-2.5v-.2s0,0,0,0c0-1.1-.3-2.1-.7-3v-.2c-1.5-1.6-2.9-3.3-4.4-4.8l-.3-.2c-.4-.2-.8-.3-1.3-.3-.5,0-1,.1-1.4.4-.7.4-1.2,1-1.4,1.7-.2.6-.2,1.3-.3,1.9h0c.4,3,1.6,5.9,4.5,7.7Z"/>
    <path class="st1" d="M552.5,216.6c-.1-1.1-.2-2.4-1-3.7-1-1.5-2.3-2.4-3.8-2.4-1,0-2.1.4-3,1.1h0s0,0,0,0c0,0,0,0,0,0-1.9,1.4-3,3.8-3,6.3,0,.9.2,1.9.5,2.8.8,2.1,2.5,3.4,4.4,3.4,1.4,0,2.8-.7,3.9-2,1.3-1.6,1.9-3.4,2-5.5h0Z"/>
    <path class="st1" d="M548.6,175.5c-1.3,0-2.5.6-3.5,1.6-1.3,1.5-1.9,3.4-1.9,5.3s.6,3.9,2,5.3c.9,1.1,2.2,1.6,3.5,1.6,1.2,0,2.5-.5,3.4-1.6,1.4-1.5,2-3.4,2-5.4h0s0,0,0,0h0c0-2-.7-3.9-2.1-5.3l-.6.5.6-.5c-.9-1-2.2-1.6-3.4-1.6Z"/>
    <path class="st1" d="M597,182.5h0c0-1.9-.5-3.7-1.4-5.1-.7-1.1-1.7-1.8-2.8-1.8-1.1,0-2.1.7-2.7,1.9h0c-.9,1.6-1.3,3.3-1.3,5,0,1.7.5,3.4,1.4,5,.6,1.1,1.6,1.9,2.7,1.9,1.1,0,2.1-.7,2.8-1.9.9-1.5,1.3-3.1,1.3-4.8h0c0,0,0-.1,0-.1Z"/>
    <path class="st1" d="M591.4,154.8c1,0,1.9-.7,2.5-1.6.4-.6.6-1.2.8-1.8v-.3c-.6-2.7-1.2-5.3-1.9-8v-.2c0,0,0,0,0,0h0c-.7-1-1.6-1.5-2.5-1.5-1.2,0-2.1.8-2.7,1.9-.5,1-.8,2.3-.8,3.6,0,2.6.9,5.5,2.7,7.1.6.6,1.4.9,2.1.9Z"/>
    <path class="st1" d="M561,110c-.2.6-.4,1.3-.4,2v.5s0,0,0,0c0,0,0,0,0,0h0s0,0,0,0c.3,2.5,1.2,4.9,3.2,6.7.9.8,1.9,1.3,2.9,1.3,1.5,0,2.7-1.1,3.3-2.8.2-.7.3-1.3.4-1.6v-.2c-.2-3-1.2-5.5-3.2-7.4-.8-.8-1.8-1.2-2.7-1.2-1.5,0-2.8,1.1-3.4,2.7h0Z"/>
    <path class="st1" d="M566.7,143.6h0c-.4,1-.6,2.1-.6,3.2,0,2.7,1.2,5.5,3.3,7.1.6.5,1.4.7,2.1.7.9,0,1.8-.4,2.5-1.1,1.2-1.2,1.7-2.8,1.7-4.4v-.4s0-.4,0-.4c0-2.1-.8-4.1-2.1-5.7-.9-1.1-2.1-1.7-3.2-1.7-1.5,0-2.9,1-3.6,2.7Z"/>
    <path class="st1" d="M569.7,246.5c-.4-.8-1-1.5-2-1.9-.4-.2-.8-.3-1.2-.3-1.5,0-2.5,1.1-3.2,1.8h0s-.4.5-.4.5h0c-1.2,1.8-2.2,3.7-2.2,5.9,0,.8.1,1.6.4,2.4.5,1.6,1.8,2.6,3.3,2.6.9,0,1.9-.4,2.7-1.2l-.5-.6.5.6c2.1-2,3.2-4.5,3.4-7.4v-.2c-.1-.7-.2-1.6-.6-2.3Z"/>
    <path class="st1" d="M362.9,258.6h.3c1.4,0,2.6-.3,3.6-.9,1-.6,1.6-1.6,2-2.8.3-.8.4-1.6.4-2.4,0-1.7-.7-3.3-1.8-4.7-1.3-1.6-3.1-2.4-4.9-2.4-1.6,0-3.2.7-4.2,2-.9,1.2-1.4,2.5-1.4,3.9,0,1,.2,2,.7,3.1,1,2.4,2.9,4,5.2,4.2h0Z"/>
    <path class="st1" d="M365.4,222.5l-.6-.5.6.5c1-1.3,1.5-2.9,1.5-4.5,0-1.7-.5-3.4-1.6-4.7-1.3-1.5-3.1-2.4-4.9-2.4-1.3,0-2.5.4-3.6,1.2-1.7,1.3-2.2,3.2-2.5,5h0c0,2.1.6,3.9,1.9,5.4,1.2,1.4,3,2.1,4.7,2.1,1.7,0,3.4-.7,4.5-2.1Z"/>
    <path class="st1" d="M370,290.2c1.9-1,2.8-2.7,2.8-4.3h0c0-3.1-1.4-5.1-3.2-6.6-1-.8-2.1-1.2-3.3-1.2-.7,0-1.4.2-2.2.5-1.9.8-2.9,2.6-2.9,4.5v.4c0,2.7,1.3,5,3.7,6.4h0c.9.5,1.9.9,2.9.9.7,0,1.4-.2,2.1-.6Z"/>
    <path class="st1" d="M328.4,114.2c0,.6,0,1.2.2,1.7.6,2.2,2.6,3.7,4.8,3.7.7,0,1.4-.2,2.1-.5,3-1.4,4.2-4,4.6-6.9v-.2c-.1-1-.3-1.9-.7-2.8-.4-.9-1.1-1.7-2.2-2.3-.7-.4-1.5-.6-2.2-.6-1.2,0-2.3.5-3.2,1.1h0c-2.1,1.4-3.3,4.1-3.3,6.7Z"/>
    <path class="st1" d="M373.6,319.6c2.4,0,4.3-1.8,4.4-4.4v-.3c0-1.6-.8-3.2-1.9-4.4-1.1-1.2-2.6-2.1-4.2-2.2h-.4c-1.2,0-2.2.4-3,1.1-.8.7-1.2,1.8-1.3,2.9v.5c0,2.9,2,5.7,4.8,6.6.5.2,1.1.2,1.6.2Z"/>
    <path class="st1" d="M378.1,30.3h.6s-.1-.8-.1-.8v.8c1.4-.2,2.6-1,3.5-1.9.9-1,1.7-2.2,1.9-3.5l-.2-.7-.7-.2c-2.8.6-5.5,1.3-8.2,2.1-.4.1-.6.5-.6.9.2,2,1.8,3.4,3.7,3.4Z"/>
    <path class="st1" d="M360.2,154.1h.9c3.3-.7,5.8-4,5.8-7.6h0s0,0,0,0h0c-.1-1.1-.4-2.2-.9-3.3-.5-1-1.4-1.9-2.7-2.5-.8-.4-1.7-.5-2.5-.5-1.5,0-2.9.6-4.1,1.6-1.6,1.4-2.4,3.5-2.4,5.6,0,1.5.5,3.1,1.5,4.3h0s0,0,0,0h0c1.1,1.3,2.6,2.4,4.5,2.4Z"/>
    <path class="st1" d="M397.9,56.4h1c2.8-.6,5.1-3.3,5.1-6.2v-.2s0,0,0,0c0-2.8-2.3-5-5.1-5v.8-.8c-1.6,0-3.1.8-4.2,2-1.1,1.2-1.8,2.7-1.8,4.3v.9c.5,2.5,2.5,4.3,5,4.2Z"/>
    <path class="st1" d="M399.2,319.9c1.8,0,3.4-1,4.3-2.9.3-.7.5-1.5.5-2.3,0-2.7-1.9-5.4-4.7-6.1-.4,0-.9-.1-1.3-.1-2.5,0-4.6,1.8-5,4.4v.7c0,3.1,2.8,6.2,6.2,6.3h0Z"/>
    <path class="st1" d="M361.4,82.5s0,0,0,0h0s0,0,0,0c.5,2.5,2.6,4.2,5,4.2.9,0,1.8-.2,2.6-.7,2.4-1.3,3.9-3.5,4-6.3h0c0-3.1-2.2-5.6-4.9-5.7h-.5c-3.5.5-6.2,3.9-6.2,7.3,0,.4,0,.8.1,1.2h0Z"/>
    <path class="st1" d="M371.5,56.7c.5,0,.9,0,1.4-.2l-.2-.8.2.8c2.7-.7,4.9-3.4,5.1-6.2v-.4c0-1.3-.5-2.5-1.3-3.3-.8-.8-1.9-1.3-3.2-1.3-.5,0-1.1,0-1.6.3-2.6.9-4.6,3.6-4.7,6.4h0s0,.1,0,.1c0,1.3.4,2.5,1.2,3.3.8.8,1.9,1.3,3.1,1.3Z"/>
    <path class="st1" d="M330.1,154.2c1.1,0,2.2-.4,3.3-1.1,2.1-1.5,3-3.7,3.2-5.7h0c0,0,0-.3,0-.3,0-1.4-.3-2.4-.7-3.4-.9-2.1-2.8-3.3-4.8-3.3-1.1,0-2.1.3-3.1,1-2.1,1.4-3.2,4-3.2,6.4,0,1.3.3,2.6,1,3.8h0c1,1.7,2.6,2.6,4.3,2.6Z"/>
    <path class="st1" d="M307.6,222.1c.7-1.2,1.1-2.6,1.1-4h0c-.3-2.3-.8-4.8-3.2-6.4-1-.7-1.9-1-2.9-1-1.3,0-2.5.7-3.5,2-.9,1.2-1.3,2.6-1.3,4.1,0,2.8,1.4,5.8,3.9,7.1h0c.7.3,1.4.5,2.1.5,1.5,0,2.9-.8,3.8-2.1Z"/>
    <path class="st1" d="M290.6,87.7c.5.3,1,.5,1.6.5.9,0,1.6-.4,2.3-.8,2.8-1.8,4-4.6,4.3-7.4h0c0-1.3-.3-2.2-.8-3-.5-.7-1.4-1.2-2.2-1.2-.7,0-1.4.2-2.1.6h0s-.7.5-.7.5h0c-2,1.9-3.4,4.2-3.7,7v.6c0,1.1.4,2.4,1.6,3.1Z"/>
    <path class="st1" d="M326,188.2l.5-.6-.5.6c1,.8,2.2,1.2,3.4,1.2,1.3,0,2.7-.5,3.7-1.5,1.5-1.5,2.3-3.3,2.3-5.4h0c0,0,0,0,0,0,0-2.1-.8-4-2.3-5.5-1-1-2.3-1.4-3.6-1.4-1.2,0-2.5.4-3.4,1.3-1.7,1.5-2.6,3.6-2.6,5.7,0,2.1.9,4.3,2.6,5.8Z"/>
    <path class="st1" d="M312.2,87.1h0s0,0,0,0h0c.6.3,1.2.5,1.9.5,1,0,1.9-.4,2.7-.9,2.5-1.7,3.9-4.3,4-7.3h0c0-1.3-.4-2.3-1-3.1-.7-.7-1.6-1.1-2.6-1.1-.7,0-1.5.2-2.2.6-2.9,1.5-4.2,4.1-4.6,6.6h0c0,.1,0,.4,0,.4,0,.9,0,1.7.3,2.4.3.8.8,1.4,1.6,1.9Z"/>
    <path class="st1" d="M297.9,148.1c0,1.9.5,3.3,1.5,4.5,1,1.1,2.1,1.8,3.4,1.8,1,0,2-.4,2.9-1.1,2-1.5,3-3.9,3-6.3,0-.9-.2-1.8-.5-2.7-.8-2.2-2.6-3.5-4.5-3.5-1.4,0-2.8.7-3.9,2-1.3,1.6-2,3.5-2,5.5h0Z"/>
    <path class="st1" d="M313.2,252.7h0s0,0,0,0c0-3-1.6-5.7-4.2-7.2-.8-.4-1.5-.7-2.3-.7-1.1,0-2.1.6-2.9,1.6-.9,1-1.3,2.3-1.3,3.6v.9c.3,1.7.9,3.3,2,4.7,1.2,1.6,2.8,2.5,4.4,2.5.4,0,.8,0,1.2-.2,2-.7,3.1-2.7,3.1-5.2Z"/>
    <path class="st1" d="M320.7,285.2c0-1.5-.6-3.2-1.6-4.6-.9-1.2-2-2.5-3.7-3-.5-.1-1-.2-1.4-.2-.9,0-1.8.3-2.4.9-.6.6-1,1.5-1.2,2.5v.9c0,3,1.9,6.2,4.5,7.5.7.3,1.5.5,2.1.5,1,0,2-.4,2.7-1.2.7-.8,1-1.9,1-3.2h0Z"/>
    <path class="st1" d="M298.3,187.8s0,0,0,0h0c1,1.1,2.2,1.6,3.5,1.6,1.3,0,2.6-.6,3.6-1.7,1.3-1.5,1.9-3.4,1.9-5.2,0-1.9-.6-3.8-1.9-5.2-1-1.1-2.2-1.7-3.5-1.7-1.3,0-2.5.6-3.5,1.7-1.3,1.4-1.9,3.1-2,5h0v.4c0,2,.7,3.8,2,5.3h0s0,0,0,0Z"/>
    <path class="st1" d="M345.6,285.5h0c0-2.7-1.7-5.6-4-6.9-.9-.5-1.8-.8-2.7-.8-1.2,0-2.4.5-3.2,1.4-.8.9-1.3,2.1-1.3,3.6,0,1.5.6,2.9,1.4,4.2.9,1.3,2,2.3,3.4,2.8h0c.7.3,1.3.4,2,.4,1.2,0,2.3-.5,3.1-1.3.8-.8,1.2-2,1.2-3.4h0Z"/>
    <path class="st1" d="M335,258.4c1.9,0,3.6-1.1,4.4-3,.4-.9.5-1.8.5-2.7,0-2.2-1-4.4-2.7-5.9-1.1-.9-2.4-1.6-3.8-1.6-.7,0-1.4.2-2.2.5-2.1.9-2.9,2.9-2.9,4.9v.2s0,0,0,0c0,0,0,0,0,0h0s0,0,0,0c0,3.4,2.2,6.5,5.2,7.3l.2-.8-.2.8c.5.1.9.2,1.4.2Z"/>
    <path class="st1" d="M335.2,213.7c-1.1-1.6-2.7-3-5-3h-.7c-2.4.4-4.2,2.4-4.7,5,0,.5-.1,1-.1,1.6,0,2.4,1.1,4.5,3,6h0c1,.8,2.2,1.2,3.3,1.2,1.8,0,3.5-1,4.5-2.6.7-1.1,1-2.4,1-3.8h0s0,0,0,0h0c0-1.6-.4-3.1-1.3-4.4Z"/>
    <path class="st1" d="M346.5,57.1c.7,0,1.3-.1,1.9-.4,1.4-.5,2.6-1.5,3.4-2.8.9-1.2,1.4-2.7,1.5-4.1h0s0,0,0,0c0,0,0,0,0,0h0s0,0,0,0c0-2.3-1.8-4-3.8-4-.7,0-1.4.2-2.1.5,0,0,0,0,0,0h0c-2.2,1.2-3.9,3-4.5,5.6-.1.5-.2,1-.2,1.5,0,1,.3,2,1.2,2.8.8.7,1.7,1,2.6,1Z"/>
    <path class="st1" d="M348.3,307.8c-1.1,0-2.1.4-2.8,1-.7.7-1.1,1.7-1.1,2.7v.8c.5,3,2.4,5,4.9,6.3h0c.6.3,1.3.5,1.9.5,1.8,0,3.3-1.2,3.7-3.1,0-.4.1-.7.1-1.1,0-1.8-.9-3.5-2.1-4.9-1.2-1.3-2.9-2.3-4.6-2.3Z"/>
    <path class="st1" d="M306.9,120.2c.7,0,1.4-.2,2.1-.6,2.8-1.6,4.1-4.2,4.2-6.8h0c0,0,0-.1,0-.1h0c0-1.4-.2-2.6-.7-3.5-.5-1-1.2-1.7-2.2-2-.4-.2-.9-.3-1.4-.3-1.6,0-3.1.9-4.3,2.4h0s0,0,0,0h0c-1.2,1.5-1.9,3.2-2.1,5.1v.7c0,1.5.5,3,1.7,4.1.8.7,1.7,1.2,2.6,1.2Z"/>
    <path class="st1" d="M585.6,244.4h-.5c-1.4,0-2.2.9-2.9,1.5h0s-.3.4-.3.4h0c-1.1,1.6-2,3.3-2,5.3,0,.7.1,1.4.4,2.2.3.8.7,1.3,1.2,1.7h.7c0,.1.5-.3.5-.3,2-4,3.1-7.5,3.6-9.8v-.6c-.1,0-.6-.4-.6-.4Z"/>
    <path class="st1" d="M268.7,246.3l-.4-.4h0c-.7-.7-1.5-1.6-2.9-1.6h-.5s-.5.4-.5.4v.6c.5,2.3,1.5,5.8,3.5,9.8l.5.4h.7c.5-.5,1-1.1,1.2-1.8.3-.7.4-1.5.4-2.2,0-2-.9-3.6-2-5.2h0Z"/>
    <path class="st1" d="M267.6,118h0s.3-.4.3-.4h0c1-1.6,1.9-3.3,1.9-5.2,0-.7-.1-1.5-.4-2.3-.3-.8-.8-1.3-1.2-1.7h-.7c0-.1-.5.3-.5.3-1.9,4-2.9,7.6-3.5,9.9v.6c.1,0,.6.3.6.3h.5c1.4,0,2.2-.9,2.9-1.6Z"/>
    <path class="st1" d="M580.7,117.6l.3.4h0c.7.7,1.5,1.6,2.9,1.7h.5s.5-.4.5-.4v-.6c-.4-2.3-1.4-5.9-3.4-9.9l-.5-.4h-.7c-.5.5-1,1.1-1.3,1.8-.3.8-.4,1.5-.4,2.3,0,1.9.8,3.6,1.9,5.1h0Z"/>
    <path class="st1" d="M425.1,65.4c8,0,14.5-6.5,14.5-14.5s-10.7-19.3-14.5-30.7c-4.1,11.9-14.5,22.7-14.5,30.7s6.5,14.5,14.5,14.5ZM435.1,48.9c1.9,3.9,0,8.6-2.9,9.9.3-1.6.5-10-5.8-26.3,0,0,6.8,12.5,8.7,16.4Z"/>
    <path class="st2" d="M432.1,58.8c2.9-1.3,4.8-6,2.9-9.9s-8.7-16.4-8.7-16.4c6.3,16.2,6.1,24.6,5.8,26.3Z"/>
    <path class="st0" d="M486.2,190.3h11.9c1.2,0,2.2-1,2.2-2.2v-13.3c0-1.2-1-2.2-2.2-2.2h-13.3c-1.2,0-2.2,1-2.2,2.2v11.5l-21.1,23.7h-10.6c-1.2,0-2.2,1-2.2,2.2v12.1l-12.4,14c-1.4-.8-3-1.3-4.7-1.3h-4v-8.4h4c1.3,0,2.4-1.1,2.4-2.4v-14.6c0-1.3-1.1-2.4-2.4-2.4h-4v-12.2h4c5.3,0,9.6-4.3,9.6-9.6v-13.2c0-1.3-.3-2.5-.7-3.7l13.7-15.4h10.1c1.2,0,2.2-1,2.2-2.2v-11.5l18.9-21.1h11.6c1.2,0,2.2-1,2.2-2.2v-13.3c0-1.2-1-2.2-2.2-2.2h-13.3c-1.2,0-2.2,1-2.2,2.2v11.8l-18.7,20.9h-11.8c-1.2,0-2.2,1-2.2,2.2v13.3s0,0,0,.1l-11.8,13.2c-1.5-1.1-3.4-1.7-5.4-1.7h-4v-8.4h4c1.3,0,2.4-1.1,2.4-2.4v-14.6c0-1.3-1.1-2.4-2.4-2.4h-4v-10.2h4c5.3,0,9.6-4.3,9.6-9.6v-13.2c0-1.2-.3-2.4-.7-3.5l10.6-11.2c.3.1.6.2.9.2h13.3c1.2,0,2.2-1,2.2-2.2v-13.3c0-1.2-1-2.2-2.2-2.2h-13.3c-1.2,0-2.2,1-2.2,2.2v8.8l-12.7,13.3c-1.6-1.1-3.5-1.8-5.6-1.8h-13.2c-1.7,0-3.4.5-4.8,1.3l-9.2-11.1v-10.6c0-1.2-1-2.2-2.2-2.2h-13.3c-1.2,0-2.2,1-2.2,2.2v13.3c0,1.2,1,2.2,2.2,2.2h12.6l8.4,10.1c-.7,1.3-1.1,2.7-1.1,4.3v13.2c0,5.3,4.3,9.6,9.6,9.6h3.8v10.2h-5.2c-1.3,0-2.4,1.1-2.4,2.4v14.6c0,1.3,1.1,2.4,2.4,2.4h5.2v8.4h-3.8c-2.2,0-4.2.8-5.8,2l-11-12.3c.3-.4.5-.9.5-1.4v-13.3c0-1.2-1-2.2-2.2-2.2h-13.3s0,0-.1,0l-16.1-18.1c0,0,0-.1,0-.2v-13.3c0-1.2-1-2.2-2.2-2.2h-13.3c-1.2,0-2.2,1-2.2,2.2v13.3c0,1.2,1,2.2,2.2,2.2h10l19.5,21.8v9.7c0,1.2,1,2.2,2.2,2.2h8.5l14.2,15.9c-.3,1-.6,2-.6,3.1v13.2c0,5.3,4.3,9.6,9.6,9.6h3.8v12.2h-5.2c-1.3,0-2.4,1.1-2.4,2.4v14.6c0,1.3,1.1,2.4,2.4,2.4h5.2v8.4h-3.8c-1.9,0-3.8.6-5.3,1.6l-10.3-11.4c.1-.3.2-.6.2-1v-14.6c0-1.3-1.1-2.4-2.4-2.4h-14.1l-19.8-22v-12.3c0-1.2-1-2.2-2.2-2.2h-13.3c-1.2,0-2.2,1-2.2,2.2v13.3c0,1.2,1,2.2,2.2,2.2h11.1l21.1,23.5v12.3c0,1.3,1.1,2.4,2.4,2.4h10.8l12.8,14.2c-.5,1.2-.8,2.5-.8,3.8v13.2c0,5.3,4.3,9.6,9.6,9.6h3.8v8.4h-4c-1.2,0-2.2,1-2.2,2.2v13.3c0,1.2,1,2.2,2.2,2.2h4v13.8h-4c-1.2,0-2.2,1-2.2,2.2v13.3c0,1.2,1,2.2,2.2,2.2h13.3c1.2,0,2.2-1,2.2-2.2v-13.3c0-1.2-1-2.2-2.2-2.2h-4v-13.8h4c1.2,0,2.2-1,2.2-2.2v-13.3c0-1.2-1-2.2-2.2-2.2h-4v-8.4h4c5.3,0,9.6-4.3,9.6-9.6v-13.2c0-1.6-.4-3.1-1.1-4.4l12.9-14.5h11.3c1.2,0,2.2-1,2.2-2.2v-12.9l19.8-22.2ZM422.7,119.1h1.4v2.3h-1.4v-2.3ZM416.1,104.8v1.4h-2.3v-1.4h2.3ZM436.1,104.8v1.4h-2.3v-1.4h2.3ZM433.8,109.4v-1.4h2.3v1.4h-2.3ZM436.1,111.2v1.4h-2.3v-1.4h2.3ZM433.8,114.4h2.3v1.4h-2.3v-1.4ZM422.7,99.2h1.4v2.3h-1.4v-2.3ZM430.5,101.5h-1.4v-2.3h1.4v2.3ZM427.3,101.5h-1.4v-2.3h1.4v2.3ZM420.9,99.2v2.3h-1.4v-2.3h1.4ZM416.1,111.2v1.4h-2.3v-1.4h2.3ZM413.8,109.4v-1.4h2.3v1.4h-2.3ZM413.8,114.4h2.3v1.4h-2.3v-1.4ZM417.6,115.8v-10.9c0-1,.8-1.8,1.8-1.8h10.9c1,0,1.8.8,1.8,1.8v10.9c0,1-.8,1.8-1.8,1.8h-10.9c-1,0-1.8-.8-1.8-1.8ZM427.3,121.4h-1.4v-2.3h1.4v2.3ZM429.1,121.4v-2.3h1.4v2.3h-1.4ZM419.5,121.4v-2.3h1.4v2.3h-1.4ZM422.7,189.5h1.4v2.3h-1.4v-2.3ZM413.8,175.3h2.3v1.4h-2.3v-1.4ZM420.9,169.6v2.3h-1.4v-2.3h1.4ZM436.1,175.3v1.4h-2.3v-1.4h2.3ZM433.8,179.8v-1.4h2.3v1.4h-2.3ZM436.1,181.6v1.4h-2.3v-1.4h2.3ZM433.8,184.8h2.3v1.4h-2.3v-1.4ZM430.5,169.6v2.3h-1.4v-2.3h1.4ZM427.3,171.9h-1.4v-2.3h1.4v2.3ZM424.1,169.6v2.3h-1.4v-2.3h1.4ZM416.1,183h-2.3v-1.4h2.3v1.4ZM416.1,179.8h-2.3v-1.4h2.3v1.4ZM413.8,184.8h2.3v1.4h-2.3v-1.4ZM417.6,186.2v-10.9c0-1,.8-1.8,1.8-1.8h10.9c1,0,1.8.8,1.8,1.8v10.9c0,1-.8,1.8-1.8,1.8h-10.9c-1,0-1.8-.8-1.8-1.8ZM427.3,191.8h-1.4v-2.3h1.4v2.3ZM429.1,191.8v-2.3h1.4v2.3h-1.4ZM419.5,191.8v-2.3h1.4v2.3h-1.4ZM436.1,247.6v1.4h-2.3v-1.4h2.3ZM427.3,264.2h-1.4v-2.3h1.4v2.3ZM422.7,261.9h1.4v2.3h-1.4v-2.3ZM416.1,247.6v1.4h-2.3v-1.4h2.3ZM420.9,242v2.3h-1.4v-2.3h1.4ZM433.8,252.2v-1.4h2.3v1.4h-2.3ZM436.1,254v1.4h-2.3v-1.4h2.3ZM416.1,250.8v1.4h-2.3v-1.4h2.3ZM416.1,254v1.4h-2.3v-1.4h2.3ZM417.6,258.6v-10.9c0-1,.8-1.8,1.8-1.8h10.9c1,0,1.8.8,1.8,1.8v10.9c0,1-.8,1.8-1.8,1.8h-10.9c-1,0-1.8-.8-1.8-1.8ZM430.5,242v2.3h-1.4v-2.3h1.4ZM427.3,244.2h-1.4v-2.3h1.4v2.3ZM424.1,242v2.3h-1.4v-2.3h1.4ZM413.8,257.2h2.3v1.4h-2.3v-1.4ZM433.8,257.2h2.3v1.4h-2.3v-1.4ZM419.5,264.2v-2.3h1.4v2.3h-1.4ZM429.1,264.2v-2.3h1.4v2.3h-1.4Z"/>
    <path class="st2" d="M419.4,245.8h10.9c1,0,1.8.8,1.8,1.8v10.9c0,1-.8,1.8-1.8,1.8h-10.9c-1,0-1.8-.8-1.8-1.8v-10.9c0-1,.8-1.8,1.8-1.8Z"/>
    <rect class="st2" x="425.9" y="242" width="1.4" height="2.3"/>
    <rect class="st2" x="419.5" y="242" width="1.4" height="2.3"/>
    <rect class="st2" x="429.1" y="242" width="1.4" height="2.3"/>
    <rect class="st2" x="422.7" y="242" width="1.4" height="2.3"/>
    <rect class="st2" x="419.5" y="261.9" width="1.4" height="2.3"/>
    <rect class="st2" x="422.7" y="261.9" width="1.4" height="2.3"/>
    <rect class="st2" x="429.1" y="261.9" width="1.4" height="2.3"/>
    <rect class="st2" x="425.9" y="261.9" width="1.4" height="2.3"/>
    <rect class="st2" x="413.8" y="254" width="2.3" height="1.4"/>
    <rect class="st2" x="413.8" y="257.2" width="2.3" height="1.4"/>
    <rect class="st2" x="413.8" y="250.8" width="2.3" height="1.4"/>
    <rect class="st2" x="413.8" y="247.6" width="2.3" height="1.4"/>
    <rect class="st2" x="433.8" y="250.8" width="2.3" height="1.4"/>
    <rect class="st2" x="433.8" y="247.6" width="2.3" height="1.4"/>
    <rect class="st2" x="433.8" y="257.2" width="2.3" height="1.4"/>
    <rect class="st2" x="433.8" y="254" width="2.3" height="1.4"/>
    <path class="st2" d="M419.4,173.5h10.9c1,0,1.8.8,1.8,1.8v10.9c0,1-.8,1.8-1.8,1.8h-10.9c-1,0-1.8-.8-1.8-1.8v-10.9c0-1,.8-1.8,1.8-1.8Z"/>
    <rect class="st2" x="425.9" y="169.6" width="1.4" height="2.3"/>
    <rect class="st2" x="419.5" y="169.6" width="1.4" height="2.3"/>
    <rect class="st2" x="429.1" y="169.6" width="1.4" height="2.3"/>
    <rect class="st2" x="422.7" y="169.6" width="1.4" height="2.3"/>
    <rect class="st2" x="419.5" y="189.5" width="1.4" height="2.3"/>
    <rect class="st2" x="422.7" y="189.5" width="1.4" height="2.3"/>
    <rect class="st2" x="429.1" y="189.5" width="1.4" height="2.3"/>
    <rect class="st2" x="425.9" y="189.5" width="1.4" height="2.3"/>
    <rect class="st2" x="413.8" y="181.6" width="2.3" height="1.4"/>
    <rect class="st2" x="413.8" y="184.8" width="2.3" height="1.4"/>
    <rect class="st2" x="413.8" y="178.4" width="2.3" height="1.4"/>
    <rect class="st2" x="413.8" y="175.3" width="2.3" height="1.4"/>
    <rect class="st2" x="433.8" y="178.4" width="2.3" height="1.4"/>
    <rect class="st2" x="433.8" y="175.3" width="2.3" height="1.4"/>
    <rect class="st2" x="433.8" y="184.8" width="2.3" height="1.4"/>
    <rect class="st2" x="433.8" y="181.6" width="2.3" height="1.4"/>
    <path class="st2" d="M419.4,103.1h10.9c1,0,1.8.8,1.8,1.8v10.9c0,1-.8,1.8-1.8,1.8h-10.9c-1,0-1.8-.8-1.8-1.8v-10.9c0-1,.8-1.8,1.8-1.8Z"/>
    <rect class="st2" x="425.9" y="99.2" width="1.4" height="2.3"/>
    <rect class="st2" x="419.5" y="99.2" width="1.4" height="2.3"/>
    <rect class="st2" x="429.1" y="99.2" width="1.4" height="2.3"/>
    <rect class="st2" x="422.7" y="99.2" width="1.4" height="2.3"/>
    <rect class="st2" x="419.5" y="119.1" width="1.4" height="2.3"/>
    <rect class="st2" x="422.7" y="119.1" width="1.4" height="2.3"/>
    <rect class="st2" x="429.1" y="119.1" width="1.4" height="2.3"/>
    <rect class="st2" x="425.9" y="119.1" width="1.4" height="2.3"/>
    <rect class="st2" x="413.8" y="111.2" width="2.3" height="1.4"/>
    <rect class="st2" x="413.8" y="114.4" width="2.3" height="1.4"/>
    <rect class="st2" x="413.8" y="108" width="2.3" height="1.4"/>
    <rect class="st2" x="413.8" y="104.8" width="2.3" height="1.4"/>
    <rect class="st2" x="433.8" y="108" width="2.3" height="1.4"/>
    <rect class="st2" x="433.8" y="104.8" width="2.3" height="1.4"/>
    <rect class="st2" x="433.8" y="114.4" width="2.3" height="1.4"/>
    <rect class="st2" x="433.8" y="111.2" width="2.3" height="1.4"/>
  </g>
</svg>